<svg width="264" height="96" viewBox="0 0 264 96" fill="none" xmlns="http://www.w3.org/2000/svg">
<path d="M84.2965 73.4667H67.8095V94.6667H51.0566V73.4667H0V61.4667L45.8711 1.33333H64.3525L21.1406 58.8H51.5884V40H67.8095V58.8H84.2965V73.4667Z" fill="#1D3557"/>
<path d="M130.395 96C122.949 96 116.301 94.1333 110.451 90.4C104.601 86.5778 99.9917 81.0667 96.6233 73.8667C93.255 66.5778 91.5709 57.9556 91.5709 48C91.5709 38.0444 93.255 29.4667 96.6233 22.2667C99.9917 14.9778 104.601 9.46667 110.451 5.73333C116.301 1.91111 122.949 0 130.395 0C137.841 0 144.489 1.91111 150.339 5.73333C156.278 9.46667 160.932 14.9778 164.3 22.2667C167.668 29.4667 169.352 38.0444 169.352 48C169.352 57.9556 167.668 66.5778 164.3 73.8667C160.932 81.0667 156.278 86.5778 150.339 90.4C144.489 94.1333 137.841 96 130.395 96ZM130.395 80.9333C137.043 80.9333 142.273 78.1778 146.084 72.6667C149.985 67.1556 151.935 58.9333 151.935 48C151.935 37.0667 149.985 28.8444 146.084 23.3333C142.273 17.8222 137.043 15.0667 130.395 15.0667C123.836 15.0667 118.606 17.8222 114.706 23.3333C110.894 28.8444 108.989 37.0667 108.989 48C108.989 58.9333 110.894 67.1556 114.706 72.6667C118.606 78.1778 123.836 80.9333 130.395 80.9333Z" fill="#1D3557"/>
<path d="M264 73.4667H247.513V94.6667H230.76V73.4667H179.703V61.4667L225.575 1.33333H244.056L200.844 58.8H231.292V40H247.513V58.8H264V73.4667Z" fill="#1D3557"/>
<path d="M113.282 9.33986L112.555 3.63287L107.29 7.35176L111.243 9.53185L110.465 13.4145L114.606 16.4204L115.458 19.5634L119.107 21.63L116.384 18.6785L115.884 15.8514L117.29 15.4013L119.1 14.4844L121.912 14.366L119.124 13.9597L117.317 14.8113L114.985 14.9094L112.262 12.6684L113.282 9.33986Z" fill="#F8F8F8"/>
<path d="M102.352 74.7632L97.7425 77.4116L100.328 82.0804L105.252 76.0508L107.868 70.0853L112.052 67.2379L107.118 68.535L102.352 74.7632Z" fill="#F8F8F8"/>
<path d="M148.43 21.4951L146.477 23.7002L147.762 25.9426L149.69 22.7391L157.722 20.817L159.007 16.6524L157.221 20.1244L148.43 21.4951Z" fill="#F8F8F8"/>
<path d="M155.569 72.072L152.208 72.4329L151.661 74.9746L155.745 73.845L164.23 77.7367L168.467 75.457L164.307 76.8825L155.569 72.072Z" fill="#F8F8F8"/>
</svg>
