<svg width="40" height="12" viewBox="0 0 40 12" fill="none" xmlns="http://www.w3.org/2000/svg">
<g clip-path="url(#clip0)">
<path fill-rule="evenodd" clip-rule="evenodd" d="M24.8152 9.38448C22.4908 11.0901 19.1216 12.0001 16.2208 12.0001C12.1534 12.0001 8.49172 10.5025 5.72151 8.01167C5.50386 7.8158 5.69887 7.54887 5.96005 7.7014C8.94965 9.43302 12.6462 10.4748 16.4646 10.4748C19.0398 10.4748 21.8726 9.94436 24.4774 8.84368C24.8709 8.67728 25.2 9.10022 24.8152 9.38448Z" fill="#FF9900"/>
<path fill-rule="evenodd" clip-rule="evenodd" d="M25.7818 8.284C25.4858 7.90613 23.8178 8.10547 23.0691 8.19387C22.841 8.2216 22.8062 8.024 23.0117 7.88186C24.3402 6.95105 26.5201 7.21972 26.7743 7.53173C27.0285 7.84546 26.7081 10.0208 25.4597 11.0591C25.2682 11.2186 25.0854 11.1336 25.1707 10.9222C25.451 10.2254 26.0796 8.66361 25.7818 8.284Z" fill="#FF9900"/>
<path fill-rule="evenodd" clip-rule="evenodd" d="M23.1212 1.31135V0.406537C23.1212 0.269602 23.2257 0.177734 23.3511 0.177734H27.4202C27.5508 0.177734 27.6552 0.271335 27.6552 0.406537V1.18134C27.6535 1.31135 27.5438 1.48121 27.3488 1.74988L25.2402 4.74685C26.0238 4.72778 26.8508 4.84391 27.5612 5.24259C27.7214 5.33272 27.7649 5.46445 27.7771 5.59446V6.55993C27.7771 6.69167 27.6309 6.84594 27.4776 6.7662C26.2257 6.11273 24.5629 6.04166 23.1787 6.77314C23.0376 6.8494 22.8896 6.69687 22.8896 6.56513V5.64819C22.8896 5.50086 22.8914 5.24952 23.0394 5.02592L25.4823 1.53841H23.3563C23.2257 1.53841 23.1212 1.44655 23.1212 1.31135Z" fill="#1D3557"/>
<path fill-rule="evenodd" clip-rule="evenodd" d="M8.27746 6.95582H7.03949C6.92109 6.94715 6.82707 6.85875 6.81836 6.74608V0.421085C6.81836 0.29455 6.92457 0.194015 7.0569 0.194015H8.2113C8.33144 0.199212 8.4272 0.291083 8.43591 0.405484V1.23229H8.45855C8.75977 0.433217 9.32565 0.0605469 10.0883 0.0605469C10.8631 0.0605469 11.3472 0.433217 11.6954 1.23229C11.9949 0.433217 12.6757 0.0605469 13.4052 0.0605469C13.9241 0.0605469 14.4917 0.273749 14.8382 0.752154C15.23 1.28429 15.1499 2.05737 15.1499 2.73511L15.1481 6.72702C15.1481 6.85355 15.0419 6.95582 14.9096 6.95582H13.6734C13.5497 6.94715 13.4505 6.84835 13.4505 6.72702V3.37471C13.4505 3.10778 13.4749 2.44217 13.4157 2.1891C13.3234 1.76443 13.0465 1.64483 12.6879 1.64483C12.3884 1.64483 12.075 1.84417 11.9479 2.1631C11.8208 2.48204 11.8329 3.01591 11.8329 3.37471V6.72702C11.8329 6.85355 11.7267 6.95582 11.5944 6.95582H10.3582C10.2328 6.94715 10.1353 6.84835 10.1353 6.72702L10.1336 3.37471C10.1336 2.66924 10.2502 1.63096 9.37092 1.63096C8.48118 1.63096 8.51601 2.64324 8.51601 3.37471V6.72702C8.51601 6.85355 8.40979 6.95582 8.27746 6.95582" fill="#1D3557"/>
<path fill-rule="evenodd" clip-rule="evenodd" d="M31.1582 0.0605469C32.9951 0.0605469 33.9893 1.63096 33.9893 3.62778C33.9893 5.557 32.8907 7.08755 31.1582 7.08755C29.3543 7.08755 28.3723 5.51714 28.3723 3.56018C28.3723 1.5911 29.3665 0.0605469 31.1582 0.0605469ZM31.1686 1.35189C30.2563 1.35189 30.1988 2.58951 30.1988 3.36085C30.1988 4.13392 30.1866 5.78407 31.1582 5.78407C32.1176 5.78407 32.1629 4.45286 32.1629 3.64165C32.1629 3.10778 32.1402 2.46991 31.9783 1.96377C31.839 1.5235 31.5621 1.35189 31.1686 1.35189Z" fill="#1D3557"/>
<path fill-rule="evenodd" clip-rule="evenodd" d="M36.3717 6.95582H35.1389C35.0153 6.94715 34.916 6.84835 34.916 6.72702L34.9143 0.400284C34.9248 0.284149 35.0275 0.194015 35.1528 0.194015H36.3003C36.4082 0.199212 36.497 0.272016 36.5214 0.370817V1.33803H36.544C36.8905 0.473085 37.3763 0.0605469 38.2312 0.0605469C38.7867 0.0605469 39.3282 0.259883 39.6764 0.805888C40.0003 1.31203 40.0003 2.1631 40.0003 2.77497V6.75648C39.9863 6.86742 39.8836 6.95582 39.7617 6.95582H38.5203C38.4071 6.94715 38.3131 6.86395 38.3009 6.75648V3.32098C38.3009 2.62937 38.381 1.6171 37.5261 1.6171C37.2248 1.6171 36.948 1.81817 36.8104 2.12323C36.6363 2.50977 36.6137 2.89458 36.6137 3.32098V6.72702C36.612 6.85355 36.504 6.95582 36.3717 6.95582" fill="#1D3557"/>
<path fill-rule="evenodd" clip-rule="evenodd" d="M19.877 3.93471C19.877 4.41485 19.8892 4.81525 19.6454 5.24165C19.4487 5.58833 19.1353 5.80153 18.7888 5.80153C18.3134 5.80153 18.0349 5.44099 18.0349 4.90885C18.0349 3.85844 18.9803 3.66777 19.877 3.66777V3.93471ZM21.1255 6.9386C21.0436 7.01141 20.9252 7.01661 20.8329 6.96807C20.422 6.62834 20.3471 6.4706 20.1225 6.14646C19.4435 6.83634 18.9612 7.04261 18.0819 7.04261C17.0389 7.04261 16.2292 6.403 16.2292 5.12205C16.2292 4.12191 16.7725 3.4407 17.5491 3.1079C18.2212 2.81323 19.1597 2.76123 19.877 2.67976V2.52029C19.877 2.22736 19.8997 1.88069 19.7255 1.62762C19.5758 1.40055 19.2868 1.30695 19.0308 1.30695C18.559 1.30695 18.1393 1.54788 18.0366 2.04709C18.0157 2.15802 17.9339 2.26722 17.8207 2.27242L16.621 2.14416C16.52 2.12162 16.4068 2.04015 16.4364 1.88589C16.7116 0.436806 18.0279 0 19.2049 0C19.8074 0 20.5944 0.159469 21.0697 0.613606C21.6722 1.17348 21.6147 1.92055 21.6147 2.7335V4.65405C21.6147 5.23126 21.855 5.48432 22.0814 5.79633C22.1597 5.90726 22.1771 6.04073 22.0761 6.12393C21.8237 6.33367 21.3744 6.72367 21.1272 6.94207L21.1255 6.9386" fill="#1D3557"/>
<path fill-rule="evenodd" clip-rule="evenodd" d="M3.64776 3.93471C3.64776 4.41485 3.65995 4.81525 3.41618 5.24165C3.21943 5.58833 2.90776 5.80153 2.55953 5.80153C2.08418 5.80153 1.80734 5.44099 1.80734 4.90885C1.80734 3.85844 2.7528 3.66777 3.64776 3.66777V3.93471ZM4.89618 6.9386C4.81435 7.01141 4.69595 7.01661 4.60366 6.96807C4.19275 6.62834 4.11962 6.4706 3.89327 6.14646C3.21421 6.83634 2.73364 7.04261 1.85261 7.04261C0.811386 7.04261 0 6.403 0 5.12205C0 4.12191 0.544987 3.4407 1.31981 3.1079C1.9919 2.81323 2.9304 2.76123 3.64776 2.67976V2.52029C3.64776 2.22736 3.6704 1.88069 3.49802 1.62762C3.34654 1.40055 3.0575 1.30695 2.80329 1.30695C2.33143 1.30695 1.91007 1.54788 1.80734 2.04709C1.78644 2.15802 1.70461 2.26722 1.59317 2.27242L0.391764 2.14416C0.290776 2.12162 0.179341 2.04015 0.207199 1.88589C0.484046 0.436806 1.79863 0 2.97567 0C3.57811 0 4.36512 0.159469 4.84046 0.613606C5.44291 1.17348 5.38545 1.92055 5.38545 2.7335V4.65405C5.38545 5.23126 5.62573 5.48432 5.85209 5.79633C5.93218 5.90726 5.94959 6.04073 5.8486 6.12393C5.59613 6.33367 5.14691 6.72367 4.89966 6.94207L4.89618 6.9386" fill="#1D3557"/>
</g>
<defs>
<clipPath id="clip0">
<rect width="40" height="12" fill="white"/>
</clipPath>
</defs>
</svg>
