<svg width="24" height="24" viewBox="0 0 24 24" fill="none" xmlns="http://www.w3.org/2000/svg">
<path fill-rule="evenodd" clip-rule="evenodd" d="M5 2C3.34315 2 2 3.34315 2 5V19C2 20.6569 3.34315 22 5 22H19C20.6569 22 22 20.6569 22 19V5C22 3.34315 20.6569 2 19 2H5ZM18.7636 9.64568C19.1202 9.22396 19.0674 8.593 18.6457 8.23639C18.224 7.87979 17.593 7.93258 17.2364 8.3543L10.1843 14.5116L7.71758 11.9702C7.33293 11.5739 6.69983 11.5644 6.30353 11.9491C5.90722 12.3337 5.89777 12.9668 6.28242 13.3631L9.51771 16.6965C9.71433 16.899 9.98742 17.0091 10.2696 16.9994C10.5517 16.9897 10.8166 16.8613 10.9989 16.6457L18.7636 9.64568Z" fill="#E63946"/>
</svg>
