<svg width="24" height="24" viewBox="0 0 24 24" fill="none" xmlns="http://www.w3.org/2000/svg">
<path d="M23.9673 17.8012C23.9673 16.2063 23.0157 14.7528 21.5222 14.1884L13.0747 10.918L13.0477 9.8376C14.6655 9.37404 15.8571 7.88411 15.8571 6.11875C15.8571 3.98441 14.1213 2.24815 11.9875 2.24815C10.9372 2.24815 9.4837 3.06041 8.69482 4.25464C8.49734 4.55138 8.47967 4.9427 8.64908 5.25711C8.81798 5.57204 9.14538 5.77731 9.50344 5.77731H9.52111C9.85579 5.77731 10.1645 5.58815 10.3292 5.29661C10.6764 4.67871 11.406 4.24789 11.9896 4.24789C13.0222 4.24789 13.8636 5.09081 13.8636 6.12238C13.8636 7.15655 13.0222 7.99792 11.9896 7.99792C11.9875 7.99792 11.9865 7.99792 11.9849 7.99792C11.7391 7.99792 11.5027 8.09302 11.3306 8.26712C11.1576 8.44225 11.0604 8.67767 11.0635 8.92452L11.0869 10.917L2.46694 14.1884C0.974925 14.7528 0 16.2042 0 17.8002V18.417C0 20.2063 1.39951 21.7524 3.18826 21.7524H20.7946C22.5818 21.7524 24 20.2146 24 18.4259L23.9673 17.8012ZM22.0065 18.4165C22.0065 19.1046 21.4806 19.7417 20.7936 19.7417H3.18826C2.50123 19.7417 1.98363 19.1046 1.98363 18.4165V17.7991C1.98363 17.0279 2.44719 16.3269 3.16747 16.0556L12.0016 12.7088L20.8237 16.0556C21.5455 16.3269 22.006 17.0279 22.006 17.7991V18.4165H22.0065Z" fill="#1D3557"/>
</svg>
