<svg width="72" height="32" viewBox="0 0 72 32" fill="none" xmlns="http://www.w3.org/2000/svg">
<rect x="0.25" y="0.25" width="71.5" height="31.5" rx="3.75" fill="white"/>
<path d="M37.155 9.95898C34.4829 9.95898 32.3135 12.0297 32.3135 14.5849C32.3135 17.3022 34.3879 19.3328 37.155 19.3328C39.8536 19.3328 41.9843 17.2743 41.9843 14.6389C41.9843 12.0035 39.8676 9.95898 37.155 9.95898Z" fill="url(#paint0_radial)"/>
<path d="M9.66684 10.1282H7.06323V19.1307H9.65278C11.0275 19.1307 12.0208 18.8065 12.8928 18.0849C13.405 17.6624 13.8178 17.134 14.1024 16.5366C14.3869 15.9393 14.5363 15.2874 14.54 14.6268C14.54 11.9757 12.5377 10.1282 9.66684 10.1282ZM11.7378 16.8892C11.177 17.3895 10.4562 17.6056 9.31172 17.6056H8.8353V11.6533H9.31172C10.4562 11.6533 11.1488 11.8555 11.7378 12.3819C12.0486 12.667 12.2961 13.0134 12.4644 13.3987C12.6327 13.7841 12.7182 14.2 12.7152 14.6199C12.7186 15.0445 12.6335 15.4652 12.4653 15.8557C12.2971 16.2462 12.0494 16.598 11.7378 16.8892Z" fill="#05171D"/>
<path d="M17.1263 10.1282H15.3578V19.1307H17.1263V10.1282Z" fill="#05171D"/>
<path d="M21.4579 13.5809C20.4031 13.1905 20.0814 12.9325 20.0814 12.4479C20.0814 11.8815 20.6387 11.4492 21.4016 11.4492C21.929 11.4492 22.3685 11.6653 22.8327 12.1778L23.7574 10.9769C23.0235 10.3273 22.0724 9.97138 21.0887 9.97812C19.4837 9.97812 18.2583 11.0849 18.2583 12.5543C18.2583 13.797 18.8297 14.4315 20.491 15.0276C20.9172 15.1579 21.3294 15.3295 21.7216 15.54C21.8834 15.6365 22.0171 15.773 22.1095 15.9362C22.202 16.0994 22.2501 16.2836 22.249 16.4708C22.249 17.1993 21.6636 17.7397 20.8725 17.7397C20.4676 17.7459 20.0696 17.6359 19.7264 17.4228C19.3833 17.2097 19.1097 16.9026 18.9387 16.5387L17.7977 17.6333C18.6117 18.8186 19.5927 19.3467 20.9428 19.3467C22.7799 19.3467 24.0721 18.1266 24.0721 16.3836C24.0703 14.9596 23.4726 14.3112 21.4579 13.5809Z" fill="#05171D"/>
<path d="M24.6295 14.6338C24.6295 17.2814 26.7268 19.3398 29.4236 19.3398C30.1944 19.3416 30.9547 19.1624 31.6422 18.8169V16.741C30.939 17.4382 30.3079 17.7258 29.5045 17.7258C27.7201 17.7258 26.4543 16.443 26.4543 14.6198C26.4543 12.8943 27.7605 11.5295 29.4236 11.5295C30.2657 11.5295 30.9074 11.8275 31.6422 12.5422V10.4767C30.9746 10.1137 30.2254 9.92361 29.464 9.9242C28.8341 9.91637 28.2088 10.0322 27.6241 10.2651C27.0395 10.498 26.5072 10.8433 26.0578 11.281C25.6084 11.7188 25.2508 12.2405 25.0057 12.8159C24.7606 13.3913 24.6327 14.0091 24.6295 14.6338Z" fill="#05171D"/>
<path d="M45.9906 16.1746L43.5681 10.1282H41.6343L45.4878 19.3608H46.4407L50.3628 10.1282H48.443L45.9906 16.1746Z" fill="#05171D"/>
<path d="M51.1685 19.1307H56.1911V17.6056H52.937V15.1741H56.0663V13.6508H52.937V11.6533H56.1911V10.1282H51.1685V19.1307Z" fill="#05171D"/>
<path d="M63.202 12.7845C63.202 11.099 62.0329 10.1282 59.9883 10.1282H57.3601V19.1307H59.1322V15.5123H59.3642L61.8131 19.1307H63.9931L61.131 15.338C62.4671 15.0678 63.202 14.1632 63.202 12.7845ZM59.6473 14.2713H59.1322V11.5435H59.6701C60.7759 11.5435 61.3754 12.0036 61.3754 12.8804C61.3754 13.7571 60.7812 14.2713 59.6473 14.2713Z" fill="#05171D"/>
<path d="M64.4497 10.7992C64.4497 10.6406 64.3442 10.5552 64.1491 10.5552H63.8889V11.3482H64.0788V11.0397L64.3038 11.3482H64.5394L64.2739 11.0206C64.3251 11.0106 64.3709 10.9828 64.4032 10.9422C64.4355 10.9016 64.452 10.8508 64.4497 10.7992ZM64.1157 10.9073H64.0805V10.6998H64.1175C64.2124 10.6998 64.2599 10.7347 64.2599 10.8009C64.2599 10.8672 64.2106 10.9073 64.1157 10.9073Z" fill="#1D1D1B"/>
<path d="M64.1877 10.257C64.0481 10.2542 63.9108 10.2927 63.7933 10.3676C63.6758 10.4425 63.5835 10.5504 63.5281 10.6776C63.4727 10.8047 63.4568 10.9453 63.4823 11.0814C63.5078 11.2176 63.5737 11.3431 63.6714 11.442C63.7692 11.5409 63.8944 11.6087 64.0312 11.6368C64.168 11.6648 64.3101 11.6519 64.4394 11.5995C64.5687 11.5472 64.6794 11.4579 64.7573 11.3429C64.8352 11.228 64.8768 11.0927 64.8769 10.9542C64.8769 10.7717 64.8048 10.5964 64.6759 10.466C64.5471 10.3357 64.3718 10.2606 64.1877 10.257ZM64.1877 11.5189C64.0735 11.5234 63.9605 11.494 63.8633 11.4344C63.7661 11.3747 63.6891 11.2876 63.6422 11.1843C63.5953 11.0809 63.5807 10.9661 63.6001 10.8544C63.6196 10.7427 63.6723 10.6394 63.7515 10.5576C63.8306 10.4759 63.9326 10.4194 64.0444 10.3956C64.1561 10.3718 64.2725 10.3816 64.3786 10.4239C64.4847 10.4662 64.5755 10.5389 64.6396 10.6328C64.7036 10.7266 64.7379 10.8374 64.738 10.9507C64.7399 11.0984 64.683 11.2408 64.5797 11.3472C64.4763 11.4535 64.3349 11.5152 64.186 11.5189H64.1877Z" fill="#1D1D1B"/>
<path d="M22.9368 21.4958L25.3066 23.957V21.6248H25.6441V24.7709L23.2796 22.3168V24.6367H22.9403L22.9368 21.4958Z" fill="#1D1D1B"/>
<path d="M22.9047 21.4959V24.6647H23.3055V22.3988L25.6753 24.8547V21.5935H25.2727V23.8786C25.169 23.7688 22.9047 21.4175 22.9047 21.4175V21.4959ZM22.968 21.5744L25.3378 24.0355V21.6545H25.612V24.6943L23.244 22.2367V24.6054H22.968V21.5744Z" fill="#1D1D1B"/>
<path d="M27.2859 21.625H28.8681V21.9353H27.6375V22.8311H28.8365V23.1431H27.6375V24.3249H28.8681V24.6369H27.2859V21.625Z" fill="#1D1D1B"/>
<path d="M28.859 21.5936H27.2522V24.6647H28.8907V24.29H27.6601V23.1692H28.859V22.798H27.6601V21.9648H28.8907V21.5901L28.859 21.5936ZM28.8274 21.6546V21.9038H27.5968V22.8625H28.7975V23.11H27.5968V24.3562H28.8274V24.6055H27.3225V21.6546H28.8274Z" fill="#1D1D1B"/>
<path d="M31.2499 24.6369H30.9106V21.9353H30.1775V21.625H31.99V21.9353H31.2499V24.6369Z" fill="#1D1D1B"/>
<path d="M31.9903 21.5935H30.1444V21.9682H30.8793V24.6647H31.2801V21.9682H32.022V21.5935H31.9903ZM31.9587 21.6545V21.9038H31.2168V24.6054H30.9425V21.9038H30.2095V21.6545H31.9587Z" fill="#1D1D1B"/>
<path d="M34.2545 23.8821L35.2337 21.468L36.2164 23.8821L37.0146 21.6249H37.382L36.2164 24.7919L35.2337 22.3657L34.251 24.7919L33.0872 21.6249H33.4546L34.2545 23.8821Z" fill="#1D1D1B"/>
<path d="M35.2093 21.4557C35.2093 21.4557 34.3144 23.6484 34.2564 23.7931C34.2054 23.6467 33.4794 21.5934 33.4794 21.5934H33.0452L34.2547 24.8807C34.2547 24.8807 35.1829 22.5887 35.2374 22.451L36.2219 24.8807L37.4314 21.5934H36.9919C36.9919 21.5934 36.2658 23.6467 36.2149 23.7931C36.1551 23.6484 35.2339 21.3843 35.2339 21.3843L35.2093 21.4557ZM34.2828 23.8959L35.2339 21.5533C35.2901 21.6876 36.2184 23.9709 36.2184 23.9709C36.2184 23.9709 37.0218 21.6963 37.0376 21.6544H37.3435C37.3154 21.7346 36.2764 24.5583 36.2219 24.7047L35.2339 22.2819L34.2512 24.7047C34.2002 24.5583 33.163 21.7416 33.1331 21.6544H33.4302C33.4442 21.6963 34.2494 23.9709 34.2494 23.9709L34.2828 23.8959Z" fill="#1D1D1B"/>
<path d="M41.7611 23.1344C41.7611 23.4446 41.6683 23.7479 41.4945 24.0059C41.3206 24.2639 41.0735 24.4649 40.7844 24.5836C40.4953 24.7024 40.1771 24.7334 39.8702 24.6729C39.5633 24.6124 39.2814 24.463 39.0601 24.2436C38.8388 24.0242 38.6881 23.7447 38.6271 23.4404C38.566 23.1361 38.5974 22.8207 38.7171 22.5341C38.8369 22.2474 39.0397 22.0024 39.2999 21.83C39.5601 21.6577 39.866 21.5657 40.1789 21.5657C40.5985 21.5657 41.001 21.7309 41.2977 22.0251C41.5944 22.3193 41.7611 22.7183 41.7611 23.1344ZM38.9325 23.1344C38.9349 23.3779 39.0099 23.6153 39.1482 23.8166C39.2864 24.0179 39.4816 24.1742 39.7093 24.2657C39.9369 24.3573 40.1868 24.38 40.4274 24.331C40.668 24.282 40.8887 24.1635 41.0615 23.9905C41.2344 23.8174 41.3517 23.5975 41.3987 23.3585C41.4458 23.1194 41.4204 22.8719 41.3258 22.6471C41.2313 22.4224 41.0718 22.2303 40.8674 22.0953C40.6629 21.9602 40.4228 21.8881 40.1771 21.8881C39.8455 21.889 39.5276 22.0201 39.2931 22.2526C39.0585 22.4852 38.9264 22.8003 38.9254 23.1291L38.9325 23.1344Z" fill="#1D1D1B"/>
<path d="M38.5618 23.1344C38.5601 23.4515 38.6533 23.7621 38.8298 24.0266C39.0062 24.2912 39.258 24.4979 39.553 24.6204C39.8481 24.743 40.1732 24.776 40.4872 24.7152C40.8011 24.6543 41.0898 24.5025 41.3167 24.2788C41.5435 24.0551 41.6982 23.7697 41.7613 23.4588C41.8243 23.1478 41.7929 22.8253 41.6708 22.5321C41.5488 22.2389 41.3418 21.9882 41.0759 21.8118C40.81 21.6354 40.4973 21.5413 40.1774 21.5413C39.9658 21.5406 39.7561 21.5813 39.5603 21.661C39.3646 21.7407 39.1866 21.8579 39.0366 22.0058C38.8865 22.1538 38.7673 22.3296 38.6859 22.5232C38.6044 22.7169 38.5623 22.9245 38.5618 23.1344ZM38.6251 23.1344C38.6212 22.8288 38.7092 22.5289 38.8777 22.273C39.0462 22.0171 39.2876 21.8166 39.5713 21.6971C39.855 21.5776 40.1682 21.5444 40.471 21.6018C40.7737 21.6592 41.0524 21.8046 41.2717 22.0195C41.4909 22.2344 41.6407 22.509 41.702 22.8085C41.7634 23.1081 41.7335 23.4189 41.6162 23.7015C41.4989 23.9842 41.2994 24.2258 41.0432 24.3958C40.787 24.5657 40.4857 24.6563 40.1774 24.656C39.7684 24.6569 39.3757 24.4975 39.0849 24.2124C38.7941 23.9273 38.6288 23.5398 38.6251 23.1344Z" fill="#1D1D1B"/>
<path d="M38.8992 23.1291C38.9013 23.3789 38.9778 23.6224 39.1193 23.8291C39.2607 24.0358 39.4606 24.1964 39.6939 24.2906C39.9272 24.3848 40.1834 24.4085 40.4302 24.3586C40.6771 24.3088 40.9035 24.1876 41.081 24.0104C41.2585 23.8332 41.3792 23.6079 41.4278 23.3628C41.4764 23.1177 41.4507 22.8639 41.3541 22.6333C41.2575 22.4026 41.0942 22.2055 40.8847 22.0667C40.6753 21.9279 40.4292 21.8536 40.1772 21.8533C39.8372 21.8547 39.5116 21.9898 39.2719 22.229C39.0323 22.4682 38.8982 22.792 38.8992 23.1291ZM38.9642 23.1291C38.9677 22.8921 39.0418 22.6613 39.1771 22.4658C39.3125 22.2703 39.5032 22.1189 39.7251 22.0305C39.947 21.9422 40.1904 21.9208 40.4245 21.9692C40.6586 22.0175 40.8731 22.1334 41.041 22.3023C41.2089 22.4712 41.3227 22.6855 41.3681 22.9183C41.4135 23.1511 41.3885 23.392 41.2962 23.6107C41.2039 23.8295 41.0484 24.0163 40.8493 24.1477C40.6502 24.2791 40.4164 24.3492 40.1772 24.3492C40.0167 24.3486 39.8578 24.3164 39.7098 24.2546C39.5618 24.1929 39.4275 24.1027 39.3148 23.9893C39.2021 23.8759 39.1131 23.7415 39.0529 23.5939C38.9927 23.4463 38.9626 23.2883 38.9642 23.1291Z" fill="#1D1D1B"/>
<path d="M43.5665 24.6369H43.229V21.625H43.672C44.2486 21.625 44.7831 21.7766 44.7831 22.4547C44.7892 22.5589 44.7744 22.6633 44.7394 22.7618C44.7044 22.8603 44.65 22.9509 44.5793 23.0283C44.5085 23.1057 44.423 23.1684 44.3276 23.2126C44.2322 23.2569 44.1289 23.2819 44.0236 23.2861L44.9888 24.6369H44.5686L43.6509 23.314H43.5665V24.6369ZM43.5665 23.0177H43.672C44.0553 23.0177 44.442 22.9462 44.442 22.4791C44.442 21.9858 44.0746 21.9353 43.6685 21.9353H43.5683L43.5665 23.0177Z" fill="#1D1D1B"/>
<path d="M43.2292 21.5936H43.1975V24.6647H43.5983V23.3418H43.6511C43.6511 23.3645 44.5441 24.6508 44.5441 24.6508L44.9836 24.6647H45.0469C45.0469 24.6647 44.1187 23.3714 44.0712 23.3017C44.2811 23.2814 44.4749 23.1816 44.6124 23.0232C44.7499 22.8647 44.8206 22.6599 44.8096 22.4511C44.8096 21.8707 44.4369 21.5901 43.6669 21.5901L43.2292 21.5936ZM43.6669 21.6546C44.4035 21.6546 44.7463 21.9091 44.7463 22.4546C44.752 22.5549 44.7375 22.6553 44.7037 22.75C44.6699 22.8447 44.6175 22.9318 44.5494 23.0063C44.4814 23.0807 44.3991 23.141 44.3074 23.1836C44.2156 23.2263 44.1162 23.2504 44.015 23.2546H43.9587L44.9239 24.6002H44.5723C44.5723 24.5758 43.6792 23.2912 43.6792 23.2912L43.5702 23.2773H43.5386V24.6002H43.2626V21.6546H43.6669Z" fill="#1D1D1B"/>
<path d="M43.5668 21.9038H43.5352V23.049H43.6723C44.0467 23.049 44.4739 22.9845 44.4739 22.479C44.4739 21.9474 44.059 21.9038 43.6688 21.9038H43.5668ZM43.667 21.9683C44.0573 21.9683 44.4089 22.0066 44.4089 22.479C44.4089 22.9252 44.0362 22.9862 43.6705 22.9862H43.5984V21.9683H43.667Z" fill="#1D1D1B"/>
<path d="M48.0508 21.625H48.5061L47.0804 23.0281L48.5536 24.6369H48.086L46.836 23.2547L46.7516 23.3366V24.6369H46.4124V21.625H46.7516V22.9218L48.0508 21.625Z" fill="#1D1D1B"/>
<path d="M48.5066 21.5936H48.0389C48.0389 21.5936 46.8875 22.7387 46.789 22.8398V21.5936H46.3882V24.6647H46.789V23.3383C46.8077 23.3265 46.8248 23.3125 46.84 23.2965L48.0706 24.6543L48.5611 24.6647H48.6331C48.6331 24.6647 47.1705 23.0681 47.1283 23.0246C47.174 22.9827 48.5892 21.5901 48.5892 21.5901L48.5066 21.5936ZM48.4292 21.6546L47.0351 23.0263L48.4837 24.6055H48.0864C48.0864 24.588 46.8646 23.2337 46.8646 23.2337L46.8435 23.2076L46.7345 23.3156C46.7345 23.3156 46.7257 24.5445 46.7257 24.6055H46.4515V21.6546H46.7257V22.9915L48.0636 21.6546H48.4292Z" fill="#1D1D1B"/>
<rect x="0.25" y="0.25" width="71.5" height="31.5" rx="3.75" stroke="#E8ECEE" stroke-width="0.5"/>
<defs>
<radialGradient id="paint0_radial" cx="0" cy="0" r="1" gradientUnits="userSpaceOnUse" gradientTransform="translate(37.1498 14.6459) scale(4.78178 4.74094)">
<stop offset="0.01" stop-color="#FFF3E8"/>
<stop offset="0.1" stop-color="#FEEEDF"/>
<stop offset="0.24" stop-color="#FDE2C7"/>
<stop offset="0.43" stop-color="#FACE9F"/>
<stop offset="0.65" stop-color="#F6B268"/>
<stop offset="0.89" stop-color="#F18E22"/>
<stop offset="1" stop-color="#EF7D00"/>
</radialGradient>
</defs>
</svg>
