<svg width="40" height="16" viewBox="0 0 40 16" fill="none" xmlns="http://www.w3.org/2000/svg">
<rect width="40" height="16" fill="white"/>
<path d="M5.18278 3.49805C2.36335 3.49805 0.013916 4.69097 0.013916 8.28996C0.013916 11.1412 1.59374 12.9367 5.25558 12.9367C9.56573 12.9367 9.84203 10.1051 9.84203 10.1051H7.75356C7.75356 10.1051 7.30577 11.6298 5.12818 11.6298C3.35458 11.6298 2.07895 10.4349 2.07895 8.76009H10.0604V7.70912C10.0604 6.05221 9.00576 3.49805 5.18278 3.49805ZM5.10997 4.84123C6.79825 4.84123 7.94921 5.87272 7.94921 7.4187H2.12514C2.12514 5.77745 3.62743 4.84123 5.10997 4.84123Z" fill="#E53238"/>
<path d="M10.0583 0.0136719V11.1299C10.0583 11.7609 10.0132 12.6469 10.0132 12.6469H12.0051C12.0051 12.6469 12.0766 12.0106 12.0766 11.429C12.0766 11.429 13.0608 12.9645 15.7368 12.9645C18.5548 12.9645 20.4689 11.0134 20.4689 8.21801C20.4689 5.61748 18.7107 3.52593 15.7414 3.52593C12.9608 3.52593 12.0968 5.0234 12.0968 5.0234V0.0136719H10.0583ZM15.2272 4.90088C17.1408 4.90088 18.3576 6.31727 18.3576 8.21801C18.3576 10.2562 16.9522 11.5896 15.2409 11.5896C13.1985 11.5896 12.0968 9.9992 12.0968 8.23616C12.0968 6.59334 13.0854 4.90088 15.2272 4.90088Z" fill="#0064D2"/>
<path d="M25.4193 3.49805C21.1777 3.49805 20.9057 5.81429 20.9057 6.18442H23.0169C23.0169 6.18442 23.1276 4.83216 25.2737 4.83216C26.6683 4.83216 27.749 5.46876 27.749 6.69266V7.12828H25.2737C21.9877 7.12828 20.2505 8.08699 20.2505 10.0325C20.2505 11.9471 21.8556 12.9888 24.0248 12.9888C26.981 12.9888 27.9333 11.3598 27.9333 11.3598C27.9333 12.0077 27.9833 12.6462 27.9833 12.6462H29.8602C29.8602 12.6462 29.7874 11.8548 29.7874 11.3484V6.97173C29.7874 4.10198 27.4664 3.49805 25.4193 3.49805ZM27.749 8.43517V9.01601C27.749 9.77358 27.2802 11.657 24.5207 11.657C23.0096 11.657 22.3617 10.9049 22.3617 10.0325C22.3617 8.44539 24.5436 8.43517 27.749 8.43517Z" fill="#F5AF02"/>
<path d="M28.6504 3.86133H31.0255L34.4342 10.6719L37.835 3.86133H39.9865L33.792 15.9863H31.5351L33.3226 12.6063L28.6504 3.86133Z" fill="#86B817"/>
</svg>
