<svg width="17" height="16" viewBox="0 0 17 16" fill="none" xmlns="http://www.w3.org/2000/svg">
<path fill-rule="evenodd" clip-rule="evenodd" d="M8.5013 2.00033C5.18759 2.00033 2.5013 4.68662 2.5013 8.00033C2.5013 11.314 5.18759 14.0003 8.5013 14.0003C11.815 14.0003 14.5013 11.314 14.5013 8.00033C14.5013 4.68662 11.815 2.00033 8.5013 2.00033ZM1.16797 8.00033C1.16797 3.95024 4.45121 0.666992 8.5013 0.666992C12.5514 0.666992 15.8346 3.95024 15.8346 8.00033C15.8346 12.0504 12.5514 15.3337 8.5013 15.3337C4.45121 15.3337 1.16797 12.0504 1.16797 8.00033Z" fill="#9399A2"/>
<path fill-rule="evenodd" clip-rule="evenodd" d="M8.4987 7.33301C8.86689 7.33301 9.16536 7.63148 9.16536 7.99967V10.6663C9.16536 11.0345 8.86689 11.333 8.4987 11.333C8.13051 11.333 7.83203 11.0345 7.83203 10.6663V7.99967C7.83203 7.63148 8.13051 7.33301 8.4987 7.33301Z" fill="#9399A2"/>
<path fill-rule="evenodd" clip-rule="evenodd" d="M7.83203 5.33366C7.83203 4.96547 8.13051 4.66699 8.4987 4.66699H8.50536C8.87355 4.66699 9.17203 4.96547 9.17203 5.33366C9.17203 5.70185 8.87355 6.00033 8.50536 6.00033H8.4987C8.13051 6.00033 7.83203 5.70185 7.83203 5.33366Z" fill="#9399A2"/>
</svg>
