<svg width="24" height="24" viewBox="0 0 24 24" fill="none" xmlns="http://www.w3.org/2000/svg">
<path fill-rule="evenodd" clip-rule="evenodd" d="M22.6747 0H1.32533C0.973833 0 0.636729 0.139633 0.388181 0.388181C0.139633 0.636729 0 0.973833 0 1.32533L0 22.6747C0 23.408 0.593333 24 1.32533 24H12.82V14.72H9.70267V11.084H12.82V8.41467C12.82 5.31467 14.7133 3.62667 17.4787 3.62667C18.8027 3.62667 19.9413 3.72533 20.2733 3.76667V7.00667H18.3667C16.8613 7.00667 16.5707 7.72133 16.5707 8.77067V11.0853H20.168L19.6987 14.7187H16.5707V24H22.6747C23.0262 24 23.3633 23.8604 23.6118 23.6118C23.8604 23.3633 24 23.0262 24 22.6747V1.32533C24 0.973833 23.8604 0.636729 23.6118 0.388181C23.3633 0.139633 23.0262 0 22.6747 0V0Z" fill="#4267B2"/>
<path fill-rule="evenodd" clip-rule="evenodd" d="M16.5706 24.0001V14.7201H19.6986L20.168 11.0854H16.5706V8.77343C16.5706 7.7241 16.8613 7.00943 18.3666 7.00943H20.2733V3.76943C19.345 3.67193 18.4121 3.62475 17.4786 3.6281C14.7133 3.6281 12.82 5.3161 12.82 8.41476V11.0881H9.70264V14.7201H12.82V24.0001H16.5706Z" fill="white"/>
</svg>
