<svg width="158" height="28" viewBox="0 0 158 28" fill="none" xmlns="http://www.w3.org/2000/svg">
<path d="M39.0216 9.03513C39.1553 9.03513 39.2708 9.0827 39.368 9.17784C39.4652 9.27297 39.5138 9.38595 39.5138 9.51676V11.4076C39.5138 11.5384 39.4652 11.6514 39.368 11.7465C39.2708 11.8416 39.1553 11.8892 39.0216 11.8892H35.8133V21.04C35.8133 21.1708 35.7647 21.2838 35.6674 21.3789C35.5702 21.4741 35.4548 21.5216 35.3211 21.5216H32.933C32.7993 21.5216 32.6839 21.4741 32.5866 21.3789C32.4894 21.2838 32.4408 21.1708 32.4408 21.04V11.8892H29.2324C29.0987 11.8892 28.9833 11.8416 28.8861 11.7465C28.7888 11.6514 28.7402 11.5384 28.7402 11.4076V9.51676C28.7402 9.38595 28.7888 9.27297 28.8861 9.17784C28.9833 9.0827 29.0987 9.03513 29.2324 9.03513H39.0216Z" fill="white"/>
<path d="M50.24 21.04C50.24 21.1708 50.1914 21.2838 50.0942 21.3789C49.997 21.4741 49.8815 21.5216 49.7478 21.5216H47.4509C47.3172 21.5216 47.2018 21.4741 47.1046 21.3789C47.0073 21.2838 46.9587 21.1708 46.9587 21.04V16.527C46.9587 16.0157 46.8311 15.6054 46.5759 15.2962C46.3207 14.987 45.9196 14.8324 45.3728 14.8324C44.8259 14.8324 44.4248 14.987 44.1696 15.2962C43.9266 15.6054 43.805 16.0157 43.805 16.527V21.04C43.805 21.1708 43.7564 21.2838 43.6592 21.3789C43.562 21.4741 43.4465 21.5216 43.3128 21.5216H41.0159C40.8822 21.5216 40.7668 21.4741 40.6696 21.3789C40.5723 21.2838 40.5237 21.1708 40.5237 21.04V9.33838C40.5237 9.20757 40.5723 9.09459 40.6696 8.99946C40.7668 8.90432 40.8822 8.85676 41.0159 8.85676H43.3128C43.4465 8.85676 43.562 8.90432 43.6592 8.99946C43.7564 9.09459 43.805 9.20757 43.805 9.33838V13.1378C44.0116 12.8881 44.3337 12.6503 44.7712 12.4243C45.2087 12.1865 45.713 12.0676 46.2842 12.0676C46.8676 12.0676 47.4023 12.1508 47.8884 12.3173C48.3745 12.4719 48.7877 12.7157 49.128 13.0486C49.4805 13.3816 49.7539 13.8038 49.9484 14.3151C50.1428 14.8265 50.24 15.433 50.24 16.1346V21.04Z" fill="white"/>
<path d="M55.0992 17.9005C55.0992 18.1741 55.1478 18.4 55.245 18.5784C55.3544 18.7568 55.4881 18.8995 55.6461 19.0065C55.804 19.1135 55.9803 19.1908 56.1747 19.2384C56.3692 19.2741 56.5575 19.2919 56.7398 19.2919C57.1044 19.2919 57.39 19.2562 57.5966 19.1849C57.8154 19.1135 57.9977 19.0124 58.1435 18.8816C58.2772 18.7746 58.3744 18.7092 58.4352 18.6854C58.4959 18.6497 58.5992 18.6319 58.7451 18.6319H61.1149C61.3823 18.6319 61.5159 18.7627 61.5159 19.0243C61.5159 19.167 61.4248 19.387 61.2425 19.6843C61.0602 19.9697 60.7746 20.267 60.3857 20.5762C60.009 20.8735 59.5168 21.1351 58.9091 21.3611C58.3015 21.587 57.5784 21.7 56.7398 21.7C55.9499 21.7 55.245 21.593 54.6252 21.3789C54.0176 21.153 53.5011 20.8319 53.0757 20.4157C52.6625 19.9995 52.3465 19.4941 52.1278 18.8995C51.9212 18.3049 51.8179 17.633 51.8179 16.8838C51.8179 16.1941 51.9212 15.5578 52.1278 14.9751C52.3465 14.3805 52.6625 13.8692 53.0757 13.4411C53.5011 13.013 54.0176 12.68 54.6252 12.4422C55.245 12.1924 55.9499 12.0676 56.7398 12.0676C57.627 12.0676 58.3805 12.2162 59.0003 12.5135C59.6322 12.7989 60.1427 13.1735 60.5316 13.6373C60.9326 14.1011 61.2182 14.6243 61.3883 15.207C61.5706 15.7778 61.6618 16.3486 61.6618 16.9195V17.4189C61.6618 17.5497 61.6132 17.6627 61.5159 17.7578C61.4187 17.853 61.3033 17.9005 61.1696 17.9005H55.0992ZM56.7398 14.4757C56.2294 14.4757 55.8405 14.6243 55.5731 14.9216C55.3058 15.2189 55.1478 15.5519 55.0992 15.9205H58.3805C58.3319 15.5519 58.1739 15.2189 57.9065 14.9216C57.6391 14.6243 57.2502 14.4757 56.7398 14.4757Z" fill="white"/>
<path d="M78.2202 20.933C78.2567 20.9805 78.2749 21.0459 78.2749 21.1292C78.2749 21.2362 78.2324 21.3314 78.1473 21.4146C78.0744 21.4859 77.9833 21.5216 77.8739 21.5216H74.9754C74.8053 21.5216 74.6655 21.4859 74.5561 21.4146C74.4468 21.3432 74.3374 21.2422 74.228 21.1114L70.7826 16.8659V21.04C70.7826 21.1708 70.734 21.2838 70.6368 21.3789C70.5396 21.4741 70.4241 21.5216 70.2904 21.5216H67.9024C67.7687 21.5216 67.6532 21.4741 67.556 21.3789C67.4588 21.2838 67.4102 21.1708 67.4102 21.04V9.51676C67.4102 9.38595 67.4588 9.27297 67.556 9.17784C67.6532 9.0827 67.7687 9.03513 67.9024 9.03513H70.2904C70.4241 9.03513 70.5396 9.0827 70.6368 9.17784C70.734 9.27297 70.7826 9.38595 70.7826 9.51676V13.2805L73.991 9.42757C74.0518 9.35622 74.1308 9.27297 74.228 9.17784C74.3252 9.0827 74.4893 9.03513 74.7202 9.03513H77.564C77.6734 9.03513 77.7645 9.07676 77.8374 9.16C77.9225 9.23135 77.965 9.32054 77.965 9.42757C77.965 9.51081 77.9468 9.57622 77.9103 9.62378L73.4077 15.0108L78.2202 20.933Z" fill="white"/>
<path d="M78.6237 18.8816C78.6237 18.0968 78.9275 17.4487 79.5352 16.9373C80.155 16.4259 81.1576 16.0514 82.543 15.8135L84.6759 15.4568C84.6759 15.1714 84.5969 14.9395 84.4389 14.7611C84.2809 14.5708 84.0075 14.4757 83.6186 14.4757C83.3391 14.4757 83.1203 14.5173 82.9623 14.6005C82.8165 14.6719 82.7071 14.7373 82.6342 14.7968C82.5248 14.8919 82.4215 14.9514 82.3243 14.9751C82.2271 14.9989 82.1116 15.0108 81.9779 15.0108H79.6628C79.5413 15.0108 79.438 14.9751 79.3529 14.9038C79.28 14.8324 79.2496 14.7373 79.2617 14.6184C79.2861 14.3449 79.4076 14.0595 79.6263 13.7622C79.8451 13.4649 80.1428 13.1914 80.5196 12.9416C80.9085 12.6919 81.3642 12.4838 81.8868 12.3173C82.4215 12.1508 82.9988 12.0676 83.6186 12.0676C84.3599 12.0676 85.004 12.1568 85.5509 12.3351C86.0978 12.5135 86.5475 12.7632 86.8999 13.0843C87.2645 13.3935 87.5318 13.7681 87.702 14.2081C87.8721 14.6362 87.9572 15.1119 87.9572 15.6351V21.04C87.9572 21.1708 87.9086 21.2838 87.8114 21.3789C87.7141 21.4741 87.5987 21.5216 87.465 21.5216H85.1681C85.0344 21.5216 84.919 21.4741 84.8217 21.3789C84.7245 21.2838 84.6759 21.1708 84.6759 21.04V20.5405C84.3842 20.8973 84.0196 21.1827 83.5821 21.3968C83.1568 21.5989 82.5917 21.7 81.8868 21.7C81.3642 21.7 80.8963 21.6287 80.4831 21.4859C80.0821 21.3432 79.7418 21.147 79.4623 20.8973C79.1949 20.6476 78.9883 20.3503 78.8425 20.0054C78.6966 19.6605 78.6237 19.2859 78.6237 18.8816ZM82.78 19.2919C83.0474 19.2919 83.2965 19.2503 83.5274 19.167C83.7583 19.0719 83.9589 18.947 84.129 18.7924C84.2992 18.6378 84.4328 18.4595 84.5301 18.2573C84.6273 18.0432 84.6759 17.8173 84.6759 17.5795L82.9988 17.8292C82.6707 17.8886 82.4033 17.9897 82.1967 18.1324C82.0022 18.2751 81.905 18.4595 81.905 18.6854C81.905 18.9114 81.9779 19.0719 82.1238 19.167C82.2818 19.2503 82.5005 19.2919 82.78 19.2919Z" fill="white"/>
<path d="M93.2595 21.04C93.2595 21.1708 93.2109 21.2838 93.1137 21.3789C93.0165 21.4741 92.901 21.5216 92.7673 21.5216H90.4704C90.3368 21.5216 90.2213 21.4741 90.1241 21.3789C90.0269 21.2838 89.9782 21.1708 89.9782 21.04V9.33838C89.9782 9.20757 90.0269 9.09459 90.1241 8.99946C90.2213 8.90432 90.3368 8.85676 90.4704 8.85676H92.7673C92.901 8.85676 93.0165 8.90432 93.1137 8.99946C93.2109 9.09459 93.2595 9.20757 93.2595 9.33838V21.04Z" fill="white"/>
<path d="M98.6536 21.04C98.6536 21.1708 98.605 21.2838 98.5078 21.3789C98.4106 21.4741 98.2951 21.5216 98.1614 21.5216H95.8645C95.7308 21.5216 95.6154 21.4741 95.5182 21.3789C95.4209 21.2838 95.3723 21.1708 95.3723 21.04V9.33838C95.3723 9.20757 95.4209 9.09459 95.5182 8.99946C95.6154 8.90432 95.7308 8.85676 95.8645 8.85676H98.1614C98.2951 8.85676 98.4106 8.90432 98.5078 8.99946C98.605 9.09459 98.6536 9.20757 98.6536 9.33838V21.04Z" fill="white"/>
<path d="M103.61 17.9005C103.61 18.1741 103.659 18.4 103.756 18.5784C103.865 18.7568 103.999 18.8995 104.157 19.0065C104.315 19.1135 104.491 19.1908 104.686 19.2384C104.88 19.2741 105.069 19.2919 105.251 19.2919C105.615 19.2919 105.901 19.2562 106.108 19.1849C106.326 19.1135 106.509 19.0124 106.654 18.8816C106.788 18.7746 106.885 18.7092 106.946 18.6854C107.007 18.6497 107.11 18.6319 107.256 18.6319H109.626C109.893 18.6319 110.027 18.7627 110.027 19.0243C110.027 19.167 109.936 19.387 109.754 19.6843C109.571 19.9697 109.286 20.267 108.897 20.5762C108.52 20.8735 108.028 21.1351 107.42 21.3611C106.812 21.587 106.089 21.7 105.251 21.7C104.461 21.7 103.756 21.593 103.136 21.3789C102.529 21.153 102.012 20.8319 101.587 20.4157C101.174 19.9995 100.858 19.4941 100.639 18.8995C100.432 18.3049 100.329 17.633 100.329 16.8838C100.329 16.1941 100.432 15.5578 100.639 14.9751C100.858 14.3805 101.174 13.8692 101.587 13.4411C102.012 13.013 102.529 12.68 103.136 12.4422C103.756 12.1924 104.461 12.0676 105.251 12.0676C106.138 12.0676 106.891 12.2162 107.511 12.5135C108.143 12.7989 108.654 13.1735 109.043 13.6373C109.444 14.1011 109.729 14.6243 109.899 15.207C110.082 15.7778 110.173 16.3486 110.173 16.9195V17.4189C110.173 17.5497 110.124 17.6627 110.027 17.7578C109.93 17.853 109.814 17.9005 109.681 17.9005H103.61ZM105.251 14.4757C104.74 14.4757 104.352 14.6243 104.084 14.9216C103.817 15.2189 103.659 15.5519 103.61 15.9205H106.891C106.843 15.5519 106.685 15.2189 106.418 14.9216C106.15 14.6243 105.761 14.4757 105.251 14.4757Z" fill="white"/>
<path d="M114.738 16.2595C114.714 16.4378 114.701 16.6459 114.701 16.8838C114.701 17.1216 114.714 17.3297 114.738 17.5081C114.774 17.9362 114.938 18.2811 115.23 18.5427C115.522 18.8043 115.911 18.9351 116.397 18.9351C116.798 18.9351 117.102 18.8816 117.308 18.7746C117.527 18.6557 117.703 18.4951 117.837 18.293C117.898 18.1978 117.964 18.1146 118.037 18.0432C118.122 17.9719 118.232 17.9362 118.366 17.9362H120.754C120.887 17.9362 121.003 17.9838 121.1 18.0789C121.209 18.1741 121.258 18.287 121.246 18.4178C121.234 18.6081 121.155 18.8876 121.009 19.2562C120.863 19.6249 120.608 19.9935 120.243 20.3622C119.879 20.7189 119.386 21.0341 118.767 21.3076C118.147 21.5692 117.357 21.7 116.397 21.7C115.716 21.7 115.078 21.6049 114.483 21.4146C113.899 21.2243 113.383 20.9508 112.933 20.5941C112.496 20.2373 112.143 19.8092 111.876 19.3097C111.621 18.7984 111.481 18.2276 111.457 17.5973C111.444 17.4189 111.438 17.1811 111.438 16.8838C111.438 16.5865 111.444 16.3486 111.457 16.1703C111.481 15.54 111.621 14.9751 111.876 14.4757C112.143 13.9643 112.496 13.5303 112.933 13.1735C113.383 12.8168 113.899 12.5432 114.483 12.353C115.078 12.1627 115.716 12.0676 116.397 12.0676C117.357 12.0676 118.147 12.2043 118.767 12.4778C119.386 12.7395 119.879 13.0546 120.243 13.4232C120.608 13.78 120.863 14.1427 121.009 14.5114C121.155 14.88 121.234 15.1595 121.246 15.3497C121.258 15.4805 121.209 15.5935 121.1 15.6887C121.003 15.7838 120.887 15.8314 120.754 15.8314H118.366C118.232 15.8314 118.122 15.7957 118.037 15.7243C117.964 15.653 117.898 15.5697 117.837 15.4746C117.703 15.2724 117.527 15.1178 117.308 15.0108C117.102 14.8919 116.798 14.8324 116.397 14.8324C115.911 14.8324 115.522 14.9632 115.23 15.2249C114.938 15.4865 114.774 15.8314 114.738 16.2595Z" fill="white"/>
<path d="M127.162 17.9005C127.162 18.1741 127.223 18.3881 127.345 18.5427C127.466 18.6854 127.667 18.7568 127.946 18.7568H129.405C129.538 18.7568 129.654 18.8043 129.751 18.8995C129.848 18.9946 129.897 19.1076 129.897 19.2384V21.04C129.897 21.1708 129.848 21.2838 129.751 21.3789C129.654 21.4741 129.538 21.5216 129.405 21.5216H127.673C127.102 21.5216 126.579 21.4443 126.105 21.2897C125.643 21.1232 125.248 20.8914 124.92 20.5941C124.592 20.2849 124.337 19.9162 124.154 19.4881C123.972 19.0481 123.881 18.5546 123.881 18.0076V15.0108H122.532C122.398 15.0108 122.283 14.9632 122.186 14.8681C122.088 14.773 122.04 14.66 122.04 14.5292V12.7276C122.04 12.5968 122.088 12.4838 122.186 12.3886C122.283 12.2935 122.398 12.2459 122.532 12.2459H123.881V9.33838C123.881 9.20757 123.93 9.09459 124.027 8.99946C124.124 8.90432 124.24 8.85676 124.373 8.85676H126.67C126.804 8.85676 126.919 8.90432 127.017 8.99946C127.114 9.09459 127.162 9.20757 127.162 9.33838V12.2459H129.222C129.356 12.2459 129.471 12.2935 129.569 12.3886C129.666 12.4838 129.714 12.5968 129.714 12.7276V14.5292C129.714 14.66 129.666 14.773 129.569 14.8681C129.471 14.9632 129.356 15.0108 129.222 15.0108H127.162V17.9005Z" fill="white"/>
<path d="M134.721 21.04C134.721 21.1708 134.672 21.2838 134.575 21.3789C134.478 21.4741 134.362 21.5216 134.229 21.5216H131.932C131.798 21.5216 131.683 21.4741 131.585 21.3789C131.488 21.2838 131.44 21.1708 131.44 21.04V12.7276C131.44 12.5968 131.488 12.4838 131.585 12.3886C131.683 12.2935 131.798 12.2459 131.932 12.2459H134.229C134.362 12.2459 134.478 12.2935 134.575 12.3886C134.672 12.4838 134.721 12.5968 134.721 12.7276V21.04ZM134.721 10.7832C134.721 10.9141 134.672 11.027 134.575 11.1222C134.478 11.2173 134.362 11.2649 134.229 11.2649H131.932C131.798 11.2649 131.683 11.2173 131.585 11.1222C131.488 11.027 131.44 10.9141 131.44 10.7832V8.98162C131.44 8.85081 131.488 8.73784 131.585 8.6427C131.683 8.54757 131.798 8.5 131.932 8.5H134.229C134.362 8.5 134.478 8.54757 134.575 8.6427C134.672 8.73784 134.721 8.85081 134.721 8.98162V10.7832Z" fill="white"/>
<path d="M140.388 21.5216C140.206 21.5216 140.072 21.4741 139.987 21.3789C139.914 21.2838 139.848 21.1827 139.787 21.0757L136.104 12.7989C136.092 12.7632 136.086 12.7216 136.086 12.6741C136.086 12.5551 136.129 12.4541 136.214 12.3708C136.299 12.2876 136.402 12.2459 136.524 12.2459H138.857C139.039 12.2459 139.173 12.2935 139.258 12.3886C139.343 12.4838 139.41 12.5789 139.459 12.6741L141.464 17.3297L143.469 12.6741C143.518 12.5789 143.585 12.4838 143.67 12.3886C143.755 12.2935 143.888 12.2459 144.071 12.2459H146.404C146.526 12.2459 146.629 12.2876 146.714 12.3708C146.799 12.4541 146.842 12.5551 146.842 12.6741C146.842 12.7216 146.836 12.7632 146.823 12.7989L143.141 21.0757C143.08 21.1827 143.007 21.2838 142.922 21.3789C142.849 21.4741 142.722 21.5216 142.539 21.5216H140.388Z" fill="white"/>
<path d="M150.608 17.9005C150.608 18.1741 150.657 18.4 150.754 18.5784C150.863 18.7568 150.997 18.8995 151.155 19.0065C151.313 19.1135 151.489 19.1908 151.684 19.2384C151.878 19.2741 152.066 19.2919 152.249 19.2919C152.613 19.2919 152.899 19.2562 153.105 19.1849C153.324 19.1135 153.506 19.0124 153.652 18.8816C153.786 18.7746 153.883 18.7092 153.944 18.6854C154.005 18.6497 154.108 18.6319 154.254 18.6319H156.624C156.891 18.6319 157.025 18.7627 157.025 19.0243C157.025 19.167 156.934 19.387 156.751 19.6843C156.569 19.9697 156.283 20.267 155.895 20.5762C155.518 20.8735 155.026 21.1351 154.418 21.3611C153.81 21.587 153.087 21.7 152.249 21.7C151.459 21.7 150.754 21.593 150.134 21.3789C149.526 21.153 149.01 20.8319 148.585 20.4157C148.171 19.9995 147.855 19.4941 147.637 18.8995C147.43 18.3049 147.327 17.633 147.327 16.8838C147.327 16.1941 147.43 15.5578 147.637 14.9751C147.855 14.3805 148.171 13.8692 148.585 13.4411C149.01 13.013 149.526 12.68 150.134 12.4422C150.754 12.1924 151.459 12.0676 152.249 12.0676C153.136 12.0676 153.889 12.2162 154.509 12.5135C155.141 12.7989 155.651 13.1735 156.04 13.6373C156.441 14.1011 156.727 14.6243 156.897 15.207C157.079 15.7778 157.171 16.3486 157.171 16.9195V17.4189C157.171 17.5497 157.122 17.6627 157.025 17.7578C156.928 17.853 156.812 17.9005 156.678 17.9005H150.608ZM152.249 14.4757C151.738 14.4757 151.349 14.6243 151.082 14.9216C150.815 15.2189 150.657 15.5519 150.608 15.9205H153.889C153.841 15.5519 153.683 15.2189 153.415 14.9216C153.148 14.6243 152.759 14.4757 152.249 14.4757Z" fill="white"/>
<path d="M2.26562 9.73218L5.73609 6.30469H18.7709L15.2863 9.73218H11.8751L11.8494 13.1305L10.1423 14.8434L11.8751 16.5372V18.2569L8.37627 21.7008V9.73218H2.26562Z" fill="white"/>
<path d="M11.2051 14.8477L19.8724 6.30078H24.797L16.112 14.8477L23.0075 21.6705H18.0801L11.2051 14.8477Z" fill="#E63946"/>
</svg>
