<svg width="236" height="32" viewBox="0 0 236 32" fill="none" xmlns="http://www.w3.org/2000/svg">
<path fill-rule="evenodd" clip-rule="evenodd" d="M11.8503 17.3509L14.4429 20.0218V22.7672L9.21185 28.1735H9.19104V6.53125H14.4429L14.4429 14.6714L11.8503 17.3509Z" fill="#1D3557"/>
<path d="M17.1719 13.5273L13.4583 17.3531L23.859 28.1742L31.2862 28.1742L17.1719 13.5273Z" fill="#E63946"/>
<path fill-rule="evenodd" clip-rule="evenodd" d="M0 9.18671L5.19254 3.82715H24.8791L19.64 9.23771H0V9.18671Z" fill="#1D3557"/>
<path d="M13.4577 17.3533L17.1713 21.1791L33.9841 3.82545L26.5569 3.82545L13.4577 17.3533Z" fill="#E63946"/>
<path d="M56.9348 9.05809C57.1374 9.05809 57.3124 9.13209 57.4598 9.28009C57.6071 9.4281 57.6808 9.60385 57.6808 9.80735V12.7489C57.6808 12.9524 57.6071 13.1281 57.4598 13.2761C57.3124 13.4241 57.1374 13.4981 56.9348 13.4981H52.0722V27.734C52.0722 27.9375 51.9985 28.1133 51.8512 28.2613C51.7038 28.4093 51.5289 28.4833 51.3263 28.4833H47.7069C47.5043 28.4833 47.3294 28.4093 47.182 28.2613C47.0346 28.1133 46.961 27.9375 46.961 27.734V13.4981H42.0984C41.8958 13.4981 41.7208 13.4241 41.5734 13.2761C41.4261 13.1281 41.3524 12.9524 41.3524 12.7489V9.80735C41.3524 9.60385 41.4261 9.4281 41.5734 9.28009C41.7208 9.13209 41.8958 9.05809 42.0984 9.05809H56.9348Z" fill="#1D3557"/>
<path d="M73.9373 27.734C73.9373 27.9375 73.8636 28.1133 73.7162 28.2613C73.5689 28.4093 73.3939 28.4833 73.1913 28.4833H69.7101C69.5075 28.4833 69.3325 28.4093 69.1852 28.2613C69.0378 28.1133 68.9642 27.9375 68.9642 27.734V20.7132C68.9642 19.9177 68.7708 19.2794 68.384 18.7984C67.9972 18.3174 67.3893 18.0769 66.5605 18.0769C65.7316 18.0769 65.1238 18.3174 64.737 18.7984C64.3686 19.2794 64.1845 19.9177 64.1845 20.7132V27.734C64.1845 27.9375 64.1108 28.1133 63.9634 28.2613C63.8161 28.4093 63.6411 28.4833 63.4385 28.4833H59.9573C59.7547 28.4833 59.5797 28.4093 59.4324 28.2613C59.285 28.1133 59.2113 27.9375 59.2113 27.734V9.52985C59.2113 9.32635 59.285 9.15059 59.4324 9.00259C59.5797 8.85459 59.7547 8.78059 59.9573 8.78059H63.4385C63.6411 8.78059 63.8161 8.85459 63.9634 9.00259C64.1108 9.15059 64.1845 9.32635 64.1845 9.52985V15.4406C64.4976 15.0521 64.9857 14.6821 65.6488 14.3306C66.3118 13.9606 67.0762 13.7756 67.9419 13.7756C68.826 13.7756 69.6364 13.9051 70.3732 14.1641C71.11 14.4046 71.7362 14.7839 72.2519 15.3019C72.7861 15.8199 73.2005 16.4767 73.4952 17.2722C73.7899 18.0677 73.9373 19.0112 73.9373 20.1027V27.734Z" fill="#1D3557"/>
<path d="M81.3017 22.85C81.3017 23.2755 81.3754 23.627 81.5228 23.9045C81.6885 24.182 81.8911 24.404 82.1306 24.5705C82.37 24.737 82.6371 24.8572 82.9318 24.9312C83.2265 24.9867 83.512 25.0145 83.7883 25.0145C84.3408 25.0145 84.7737 24.959 85.0868 24.848C85.4184 24.737 85.6946 24.5797 85.9157 24.3762C86.1183 24.2097 86.2656 24.108 86.3577 24.071C86.4498 24.0155 86.6064 23.9877 86.8274 23.9877H90.4191C90.8243 23.9877 91.0269 24.1912 91.0269 24.5982C91.0269 24.8202 90.8888 25.1625 90.6125 25.625C90.3362 26.069 89.9034 26.5315 89.314 27.0125C88.743 27.475 87.997 27.882 87.0761 28.2335C86.1551 28.585 85.0592 28.7608 83.7883 28.7608C82.5911 28.7608 81.5228 28.5943 80.5834 28.2613C79.6624 27.9098 78.8796 27.4103 78.235 26.7627C77.6087 26.1152 77.1298 25.329 76.7983 24.404C76.4852 23.479 76.3286 22.4337 76.3286 21.2682C76.3286 20.1952 76.4852 19.2054 76.7983 18.2989C77.1298 17.3739 77.6087 16.5784 78.235 15.9124C78.8796 15.2464 79.6624 14.7284 80.5834 14.3584C81.5228 13.9699 82.5911 13.7756 83.7883 13.7756C85.1329 13.7756 86.2748 14.0069 87.2142 14.4694C88.172 14.9134 88.9456 15.4961 89.535 16.2177C90.1428 16.9392 90.5756 17.7532 90.8335 18.6597C91.1098 19.5477 91.2479 20.4357 91.2479 21.3237V22.1007C91.2479 22.3042 91.1743 22.48 91.0269 22.628C90.8796 22.776 90.7046 22.85 90.502 22.85H81.3017ZM83.7883 17.5219C83.0147 17.5219 82.4253 17.7532 82.0201 18.2157C81.6149 18.6782 81.3754 19.1962 81.3017 19.7697H86.2748C86.2012 19.1962 85.9617 18.6782 85.5565 18.2157C85.1513 17.7532 84.5619 17.5219 83.7883 17.5219Z" fill="#1D3557"/>
<path d="M116.344 27.5675C116.399 27.6415 116.427 27.7433 116.427 27.8728C116.427 28.0393 116.362 28.1873 116.233 28.3168C116.123 28.4278 115.985 28.4833 115.819 28.4833H111.426C111.168 28.4833 110.956 28.4278 110.79 28.3168C110.625 28.2058 110.459 28.0485 110.293 27.845L105.071 21.2405V27.734C105.071 27.9375 104.998 28.1133 104.85 28.2613C104.703 28.4093 104.528 28.4833 104.325 28.4833H100.706C100.504 28.4833 100.329 28.4093 100.181 28.2613C100.034 28.1133 99.9602 27.9375 99.9602 27.734V9.80735C99.9602 9.60385 100.034 9.4281 100.181 9.28009C100.329 9.13209 100.504 9.05809 100.706 9.05809H104.325C104.528 9.05809 104.703 9.13209 104.85 9.28009C104.998 9.4281 105.071 9.60385 105.071 9.80735V15.6627L109.934 9.6686C110.026 9.5576 110.146 9.4281 110.293 9.28009C110.441 9.13209 110.689 9.05809 111.039 9.05809H115.349C115.515 9.05809 115.653 9.12284 115.764 9.25234C115.893 9.36335 115.957 9.5021 115.957 9.6686C115.957 9.7981 115.929 9.89985 115.874 9.97385L109.05 18.3544L116.344 27.5675Z" fill="#1D3557"/>
<path d="M116.955 24.3762C116.955 23.1552 117.416 22.147 118.337 21.3515C119.276 20.5559 120.796 19.9732 122.895 19.6032L126.128 19.0482C126.128 18.6042 126.008 18.2434 125.769 17.9659C125.529 17.6699 125.115 17.5219 124.525 17.5219C124.102 17.5219 123.77 17.5867 123.531 17.7162C123.31 17.8272 123.144 17.9289 123.034 18.0214C122.868 18.1694 122.711 18.2619 122.564 18.2989C122.416 18.3359 122.241 18.3544 122.039 18.3544H118.53C118.346 18.3544 118.189 18.2989 118.06 18.1879C117.95 18.0769 117.904 17.9289 117.922 17.7439C117.959 17.3184 118.143 16.8744 118.475 16.4119C118.806 15.9494 119.258 15.5239 119.829 15.1354C120.418 14.7469 121.109 14.4231 121.901 14.1641C122.711 13.9051 123.586 13.7756 124.525 13.7756C125.649 13.7756 126.625 13.9144 127.454 14.1919C128.283 14.4694 128.964 14.8579 129.499 15.3574C130.051 15.8384 130.456 16.4212 130.714 17.1057C130.972 17.7717 131.101 18.5117 131.101 19.3257V27.734C131.101 27.9375 131.027 28.1133 130.88 28.2613C130.733 28.4093 130.558 28.4833 130.355 28.4833H126.874C126.671 28.4833 126.496 28.4093 126.349 28.2613C126.202 28.1133 126.128 27.9375 126.128 27.734V26.957C125.686 27.512 125.133 27.956 124.47 28.289C123.826 28.6035 122.969 28.7608 121.901 28.7608C121.109 28.7608 120.4 28.6498 119.773 28.4278C119.166 28.2058 118.65 27.9005 118.226 27.512C117.821 27.1235 117.508 26.661 117.287 26.1245C117.066 25.588 116.955 25.0052 116.955 24.3762ZM123.255 25.0145C123.66 25.0145 124.037 24.9497 124.387 24.8202C124.737 24.6722 125.041 24.478 125.299 24.2375C125.557 23.997 125.759 23.7195 125.907 23.405C126.054 23.072 126.128 22.7205 126.128 22.3505L123.586 22.739C123.089 22.8315 122.684 22.9887 122.37 23.2107C122.076 23.4327 121.928 23.7195 121.928 24.071C121.928 24.4225 122.039 24.6722 122.26 24.8202C122.499 24.9497 122.831 25.0145 123.255 25.0145Z" fill="#1D3557"/>
<path d="M139.137 27.734C139.137 27.9375 139.063 28.1133 138.916 28.2613C138.769 28.4093 138.594 28.4833 138.391 28.4833H134.91C134.707 28.4833 134.532 28.4093 134.385 28.2613C134.238 28.1133 134.164 27.9375 134.164 27.734V9.52985C134.164 9.32635 134.238 9.15059 134.385 9.00259C134.532 8.85459 134.707 8.78059 134.91 8.78059H138.391C138.594 8.78059 138.769 8.85459 138.916 9.00259C139.063 9.15059 139.137 9.32635 139.137 9.52985V27.734Z" fill="#1D3557"/>
<path d="M147.312 27.734C147.312 27.9375 147.239 28.1133 147.091 28.2613C146.944 28.4093 146.769 28.4833 146.566 28.4833H143.085C142.883 28.4833 142.708 28.4093 142.56 28.2613C142.413 28.1133 142.339 27.9375 142.339 27.734V9.52985C142.339 9.32635 142.413 9.15059 142.56 9.00259C142.708 8.85459 142.883 8.78059 143.085 8.78059H146.566C146.769 8.78059 146.944 8.85459 147.091 9.00259C147.239 9.15059 147.312 9.32635 147.312 9.52985V27.734Z" fill="#1D3557"/>
<path d="M154.824 22.85C154.824 23.2755 154.898 23.627 155.045 23.9045C155.211 24.182 155.414 24.404 155.653 24.5705C155.893 24.737 156.16 24.8572 156.455 24.9312C156.749 24.9867 157.035 25.0145 157.311 25.0145C157.864 25.0145 158.296 24.959 158.61 24.848C158.941 24.737 159.217 24.5797 159.438 24.3762C159.641 24.2097 159.788 24.108 159.88 24.071C159.973 24.0155 160.129 23.9877 160.35 23.9877H163.942C164.347 23.9877 164.55 24.1912 164.55 24.5982C164.55 24.8202 164.411 25.1625 164.135 25.625C163.859 26.069 163.426 26.5315 162.837 27.0125C162.266 27.475 161.52 27.882 160.599 28.2335C159.678 28.585 158.582 28.7608 157.311 28.7608C156.114 28.7608 155.045 28.5943 154.106 28.2613C153.185 27.9098 152.402 27.4103 151.758 26.7627C151.131 26.1152 150.653 25.329 150.321 24.404C150.008 23.479 149.851 22.4337 149.851 21.2682C149.851 20.1952 150.008 19.2054 150.321 18.2989C150.653 17.3739 151.131 16.5784 151.758 15.9124C152.402 15.2464 153.185 14.7284 154.106 14.3584C155.045 13.9699 156.114 13.7756 157.311 13.7756C158.656 13.7756 159.798 14.0069 160.737 14.4694C161.695 14.9134 162.468 15.4961 163.058 16.2177C163.666 16.9392 164.098 17.7532 164.356 18.6597C164.633 19.5477 164.771 20.4357 164.771 21.3237V22.1007C164.771 22.3042 164.697 22.48 164.55 22.628C164.402 22.776 164.227 22.85 164.025 22.85H154.824ZM157.311 17.5219C156.537 17.5219 155.948 17.7532 155.543 18.2157C155.138 18.6782 154.898 19.1962 154.824 19.7697H159.798C159.724 19.1962 159.484 18.6782 159.079 18.2157C158.674 17.7532 158.085 17.5219 157.311 17.5219Z" fill="#1D3557"/>
<path d="M171.689 20.2969C171.653 20.5744 171.634 20.8982 171.634 21.2682C171.634 21.6382 171.653 21.962 171.689 22.2395C171.745 22.9055 171.993 23.442 172.435 23.849C172.877 24.256 173.467 24.4595 174.204 24.4595C174.811 24.4595 175.272 24.3762 175.585 24.2097C175.917 24.0247 176.184 23.775 176.386 23.4605C176.478 23.3125 176.58 23.183 176.69 23.072C176.819 22.961 176.985 22.9055 177.187 22.9055H180.807C181.009 22.9055 181.184 22.9795 181.332 23.1275C181.497 23.2755 181.571 23.4512 181.553 23.6547C181.534 23.9507 181.415 24.3855 181.194 24.959C180.973 25.5325 180.586 26.106 180.033 26.6795C179.481 27.2345 178.735 27.7248 177.795 28.1503C176.856 28.5573 175.659 28.7608 174.204 28.7608C173.172 28.7608 172.205 28.6128 171.303 28.3168C170.419 28.0208 169.636 27.5953 168.954 27.0403C168.291 26.4852 167.757 25.8192 167.352 25.0422C166.965 24.2467 166.753 23.3587 166.716 22.3782C166.698 22.1007 166.689 21.7307 166.689 21.2682C166.689 20.8057 166.698 20.4357 166.716 20.1582C166.753 19.1777 166.965 18.2989 167.352 17.5219C167.757 16.7264 168.291 16.0512 168.954 15.4961C169.636 14.9411 170.419 14.5156 171.303 14.2196C172.205 13.9236 173.172 13.7756 174.204 13.7756C175.659 13.7756 176.856 13.9884 177.795 14.4139C178.735 14.8209 179.481 15.3111 180.033 15.8847C180.586 16.4397 180.973 17.0039 181.194 17.5774C181.415 18.1509 181.534 18.5857 181.553 18.8817C181.571 19.0852 181.497 19.2609 181.332 19.4089C181.184 19.5569 181.009 19.6309 180.807 19.6309H177.187C176.985 19.6309 176.819 19.5754 176.69 19.4644C176.58 19.3534 176.478 19.2239 176.386 19.0759C176.184 18.7614 175.917 18.5209 175.585 18.3544C175.272 18.1694 174.811 18.0769 174.204 18.0769C173.467 18.0769 172.877 18.2804 172.435 18.6874C171.993 19.0944 171.745 19.6309 171.689 20.2969Z" fill="#1D3557"/>
<path d="M190.52 22.85C190.52 23.2755 190.612 23.6085 190.796 23.849C190.98 24.071 191.284 24.182 191.708 24.182H193.918C194.121 24.182 194.296 24.256 194.443 24.404C194.59 24.552 194.664 24.7277 194.664 24.9312V27.734C194.664 27.9375 194.59 28.1133 194.443 28.2613C194.296 28.4093 194.121 28.4833 193.918 28.4833H191.293C190.428 28.4833 189.636 28.363 188.917 28.1225C188.218 27.8635 187.619 27.5028 187.122 27.0403C186.624 26.5592 186.237 25.9857 185.961 25.3197C185.685 24.6352 185.547 23.8675 185.547 23.0165V18.3544H183.502C183.3 18.3544 183.125 18.2804 182.977 18.1324C182.83 17.9844 182.756 17.8087 182.756 17.6052V14.8024C182.756 14.5989 182.83 14.4231 182.977 14.2751C183.125 14.1271 183.3 14.0531 183.502 14.0531H185.547V9.52985C185.547 9.32635 185.62 9.15059 185.768 9.00259C185.915 8.85459 186.09 8.78059 186.293 8.78059H189.774C189.977 8.78059 190.151 8.85459 190.299 9.00259C190.446 9.15059 190.52 9.32635 190.52 9.52985V14.0531H193.642C193.844 14.0531 194.019 14.1271 194.167 14.2751C194.314 14.4231 194.388 14.5989 194.388 14.8024V17.6052C194.388 17.8087 194.314 17.9844 194.167 18.1324C194.019 18.2804 193.844 18.3544 193.642 18.3544H190.52V22.85Z" fill="#1D3557"/>
<path d="M201.975 27.734C201.975 27.9375 201.902 28.1133 201.754 28.2613C201.607 28.4093 201.432 28.4833 201.23 28.4833H197.748C197.546 28.4833 197.371 28.4093 197.223 28.2613C197.076 28.1133 197.002 27.9375 197.002 27.734V14.8024C197.002 14.5989 197.076 14.4231 197.223 14.2751C197.371 14.1271 197.546 14.0531 197.748 14.0531H201.23C201.432 14.0531 201.607 14.1271 201.754 14.2751C201.902 14.4231 201.975 14.5989 201.975 14.8024V27.734ZM201.975 11.7776C201.975 11.9811 201.902 12.1569 201.754 12.3049C201.607 12.4529 201.432 12.5269 201.23 12.5269H197.748C197.546 12.5269 197.371 12.4529 197.223 12.3049C197.076 12.1569 197.002 11.9811 197.002 11.7776V8.97484C197.002 8.77134 197.076 8.59559 197.223 8.44759C197.371 8.29959 197.546 8.22559 197.748 8.22559H201.23C201.432 8.22559 201.607 8.29959 201.754 8.44759C201.902 8.59559 201.975 8.77134 201.975 8.97484V11.7776Z" fill="#1D3557"/>
<path d="M210.565 28.4833C210.289 28.4833 210.086 28.4093 209.957 28.2613C209.847 28.1133 209.745 27.956 209.653 27.7895L204.072 14.9134C204.054 14.8579 204.045 14.7931 204.045 14.7191C204.045 14.5341 204.109 14.3769 204.238 14.2474C204.367 14.1179 204.524 14.0531 204.708 14.0531H208.244C208.521 14.0531 208.723 14.1271 208.852 14.2751C208.981 14.4231 209.082 14.5711 209.156 14.7191L212.195 21.962L215.234 14.7191C215.308 14.5711 215.409 14.4231 215.538 14.2751C215.667 14.1271 215.87 14.0531 216.146 14.0531H219.682C219.867 14.0531 220.023 14.1179 220.152 14.2474C220.281 14.3769 220.346 14.5341 220.346 14.7191C220.346 14.7931 220.336 14.8579 220.318 14.9134L214.737 27.7895C214.645 27.956 214.534 28.1133 214.405 28.2613C214.295 28.4093 214.102 28.4833 213.825 28.4833H210.565Z" fill="#1D3557"/>
<path d="M226.054 22.85C226.054 23.2755 226.128 23.627 226.275 23.9045C226.441 24.182 226.643 24.404 226.883 24.5705C227.122 24.737 227.389 24.8572 227.684 24.9312C227.979 24.9867 228.264 25.0145 228.54 25.0145C229.093 25.0145 229.526 24.959 229.839 24.848C230.17 24.737 230.447 24.5797 230.668 24.3762C230.87 24.2097 231.018 24.108 231.11 24.071C231.202 24.0155 231.358 23.9877 231.579 23.9877H235.171C235.576 23.9877 235.779 24.1912 235.779 24.5982C235.779 24.8202 235.641 25.1625 235.365 25.625C235.088 26.069 234.655 26.5315 234.066 27.0125C233.495 27.475 232.749 27.882 231.828 28.2335C230.907 28.585 229.811 28.7608 228.54 28.7608C227.343 28.7608 226.275 28.5943 225.335 28.2613C224.415 27.9098 223.632 27.4103 222.987 26.7627C222.361 26.1152 221.882 25.329 221.55 24.404C221.237 23.479 221.081 22.4337 221.081 21.2682C221.081 20.1952 221.237 19.2054 221.55 18.2989C221.882 17.3739 222.361 16.5784 222.987 15.9124C223.632 15.2464 224.415 14.7284 225.335 14.3584C226.275 13.9699 227.343 13.7756 228.54 13.7756C229.885 13.7756 231.027 14.0069 231.966 14.4694C232.924 14.9134 233.698 15.4961 234.287 16.2177C234.895 16.9392 235.328 17.7532 235.586 18.6597C235.862 19.5477 236 20.4357 236 21.3237V22.1007C236 22.3042 235.926 22.48 235.779 22.628C235.632 22.776 235.457 22.85 235.254 22.85H226.054ZM228.54 17.5219C227.767 17.5219 227.177 17.7532 226.772 18.2157C226.367 18.6782 226.128 19.1962 226.054 19.7697H231.027C230.953 19.1962 230.714 18.6782 230.309 18.2157C229.903 17.7532 229.314 17.5219 228.54 17.5219Z" fill="#1D3557"/>
</svg>
