<svg width="72" height="32" viewBox="0 0 72 32" fill="none" xmlns="http://www.w3.org/2000/svg">
<rect x="0.25" y="0.25" width="71.5" height="31.5" rx="3.75" fill="white"/>
<path d="M40.931 8.1814H31.3586V23.8159H40.931V8.1814Z" fill="#FF5F00"/>
<path d="M32.3447 15.9999C32.3435 14.4945 32.6848 13.0084 33.3427 11.6543C34.0006 10.3003 34.9579 9.11355 36.1421 8.18404C34.6754 7.03133 32.9139 6.31453 31.0591 6.11556C29.2042 5.91659 27.3308 6.24348 25.6529 7.05887C23.975 7.87426 22.5604 9.14525 21.5707 10.7266C20.581 12.3079 20.0562 14.1358 20.0562 16.0013C20.0562 17.8668 20.581 19.6947 21.5707 21.276C22.5604 22.8574 23.975 24.1284 25.6529 24.9437C27.3308 25.7591 29.2042 26.086 31.0591 25.8871C32.9139 25.6881 34.6754 24.9713 36.1421 23.8186C34.9575 22.8888 34 21.7016 33.3421 20.347C32.6841 18.9924 32.3431 17.5059 32.3447 15.9999Z" fill="#EB001B"/>
<path d="M51.2797 22.1616V21.8412H51.4178V21.7749H51.0891V21.8412H51.2189V22.1616H51.2797ZM51.9177 22.1616V21.7749H51.8182L51.7022 22.0511L51.5862 21.7749H51.4868V22.1616H51.5586V21.8688L51.6663 22.1201H51.7409L51.8486 21.8688V22.1616H51.9177Z" fill="#F79E1B"/>
<path d="M52.2297 15.9999C52.2296 17.8656 51.7047 19.6936 50.7148 21.275C49.7249 22.8563 48.3101 24.1273 46.632 24.9426C44.9539 25.7579 43.0803 26.0845 41.2253 25.8853C39.3703 25.686 37.6089 24.9689 36.1422 23.8158C37.326 22.8855 38.283 21.6985 38.9411 20.3443C39.5992 18.9901 39.9411 17.5042 39.9411 15.9985C39.9411 14.4929 39.5992 13.007 38.9411 11.6528C38.283 10.2986 37.326 9.11162 36.1422 8.18129C37.6089 7.02821 39.3703 6.31106 41.2253 6.11181C43.0803 5.91255 44.9539 6.23923 46.632 7.0545C48.3101 7.86978 49.7249 9.14075 50.7148 10.7221C51.7047 12.3035 52.2296 14.1315 52.2297 15.9972V15.9999Z" fill="#F79E1B"/>
<rect x="0.25" y="0.25" width="71.5" height="31.5" rx="3.75" stroke="#E8ECEE" stroke-width="0.5"/>
</svg>
