<svg width="24" height="24" viewBox="0 0 24 24" fill="none" xmlns="http://www.w3.org/2000/svg">
<path fill-rule="evenodd" clip-rule="evenodd" d="M12 1C11.4742 1 10.9577 1.13818 10.5021 1.40069L7.30629 3.22689C7.09618 3.26846 6.90018 3.377 6.75261 3.54328L3.50386 5.39971L3.50386 5.3997L3.5 5.40192C3.13059 5.6152 2.81192 5.90421 2.56423 6.24871C2.50321 6.30946 2.4491 6.37915 2.40392 6.45724C2.36491 6.52468 2.33466 6.59477 2.3128 6.66622C2.1079 7.07903 2.00047 7.53435 2 7.99692V7.99795V15.9979V15.999C2.00054 16.5251 2.13941 17.0418 2.40269 17.4972C2.66597 17.9527 3.04439 18.3309 3.5 18.594L3.50386 18.5962L10.5 22.594L10.5019 22.595C10.8191 22.7779 11.1658 22.9004 11.5247 22.958C11.6661 23.0345 11.828 23.078 12 23.078C12.172 23.078 12.3339 23.0345 12.4753 22.958C12.8342 22.9004 13.181 22.7779 13.4982 22.595L13.5 22.594L20.4961 18.5962L20.5 18.594C20.9556 18.3309 21.334 17.9527 21.5973 17.4972C21.8606 17.0418 21.9995 16.5251 22 15.999V15.9979V7.99795V7.99692C21.9995 7.53251 21.8912 7.07542 21.6847 6.6613C21.663 6.59156 21.6333 6.52313 21.5951 6.45724C21.5508 6.38057 21.4978 6.312 21.4382 6.25203C21.1901 5.90607 20.8706 5.61589 20.5 5.40191L20.4961 5.39971L13.5 1.40192L13.4979 1.40072C13.0424 1.1382 12.5258 1 12 1ZM13 20.5762L19.5 16.8619L19.5016 16.861C19.6527 16.7734 19.7783 16.6476 19.8658 16.4963C19.9535 16.3445 19.9998 16.1723 20 15.9969V8.53523L13 12.5845V20.5762ZM11 12.585L4 8.53577V15.9974C4.00026 16.1726 4.04654 16.3446 4.13423 16.4963C4.22169 16.6476 4.34726 16.7734 4.49842 16.861L4.5 16.8619L11 20.5762V12.585ZM12.5039 3.13619L18.9608 6.82586L16.505 8.24647L9.56089 4.24205L11.4961 3.13619L11.4961 3.1362L11.5 3.13397C11.652 3.04621 11.8245 3 12 3C12.1755 3 12.348 3.04621 12.5 3.13397L12.5 3.13398L12.5039 3.13619ZM11.9995 10.8527L14.5063 9.40262L7.54997 5.39114L5.03874 6.82613L11.9995 10.8527Z" fill="#1D3557"/>
</svg>
