<svg width="72" height="32" viewBox="0 0 72 32" fill="none" xmlns="http://www.w3.org/2000/svg">
<rect x="0.25" y="0.25" width="71.5" height="31.5" rx="3.75" fill="white"/>
<path d="M32.2845 26.2028L32.6648 23.7868L31.8175 23.7672H27.7717L30.5834 5.93954C30.5917 5.88507 30.6194 5.83542 30.6613 5.79964C30.7032 5.76386 30.7566 5.74434 30.8117 5.74463H37.6335C39.8983 5.74463 41.4612 6.2159 42.2772 7.14609C42.6597 7.58245 42.9034 8.03845 43.0212 8.54027C43.1448 9.06681 43.147 9.6959 43.0263 10.4632L43.0175 10.5192V11.0108L43.4001 11.2275C43.6921 11.3755 43.9546 11.5756 44.1746 11.8181C44.5019 12.1912 44.7135 12.6654 44.803 13.2275C44.8954 13.8057 44.8648 14.4937 44.7135 15.2726C44.539 16.1686 44.2568 16.949 43.8757 17.5875C43.5395 18.1596 43.0874 18.655 42.5485 19.0421C42.0423 19.4014 41.4408 19.6741 40.7608 19.8486C40.1019 20.0203 39.3506 20.1068 38.5266 20.1068H37.9957C37.6161 20.1068 37.2474 20.2435 36.9579 20.4886C36.6689 20.7363 36.4771 21.0786 36.4168 21.4545L36.3768 21.6719L35.7048 25.9301L35.6743 26.0865C35.6663 26.1359 35.6525 26.1606 35.6321 26.1774C35.6124 26.1935 35.5878 26.2025 35.5623 26.2028H32.2845Z" fill="#253B80"/>
<path d="M43.7622 10.5759C43.7418 10.7061 43.7185 10.8392 43.6924 10.9759C42.7927 15.5948 39.7149 17.1905 35.784 17.1905H33.7825C33.3018 17.1905 32.8967 17.5396 32.8218 18.0137L31.7971 24.5127L31.5069 26.3548C31.4953 26.4279 31.4998 26.5026 31.5198 26.5738C31.5399 26.645 31.5752 26.711 31.6232 26.7673C31.6713 26.8236 31.7309 26.8687 31.7981 26.8997C31.8653 26.9307 31.9384 26.9468 32.0124 26.9468H35.5622C35.9825 26.9468 36.3396 26.6414 36.4058 26.2268L36.4407 26.0465L37.1091 21.805L37.152 21.5723C37.2174 21.1563 37.5753 20.8508 37.9956 20.8508H38.5265C41.9658 20.8508 44.6582 19.4545 45.4451 15.4137C45.7738 13.7257 45.6036 12.3163 44.7338 11.325C44.4581 11.0184 44.1289 10.7645 43.7622 10.5759Z" fill="#179BD7"/>
<path d="M42.8212 10.2006C42.5339 10.1175 42.2417 10.0527 41.9463 10.0064C41.3625 9.91671 40.7725 9.87367 40.1819 9.8777H34.835C34.6315 9.87754 34.4347 9.95019 34.2801 10.0825C34.1255 10.2148 34.0233 10.3981 33.9921 10.5992L32.8546 17.8035L32.8219 18.0137C32.8573 17.7844 32.9737 17.5753 33.1499 17.4243C33.3261 17.2733 33.5506 17.1903 33.7826 17.1904H35.7841C39.715 17.1904 42.7928 15.5941 43.6924 10.9759C43.7194 10.8392 43.7419 10.7061 43.7623 10.5759C43.5249 10.4514 43.2775 10.347 43.0226 10.2639C42.9558 10.2417 42.8887 10.2206 42.8212 10.2006Z" fill="#222D65"/>
<path d="M33.9921 10.5993C34.023 10.3981 34.1251 10.2148 34.2798 10.0825C34.4345 9.9503 34.6315 9.87791 34.835 9.87855H40.1819C40.8153 9.87855 41.4066 9.92 41.9462 10.0073C42.3114 10.0647 42.6715 10.1505 43.0233 10.264C43.2888 10.352 43.5353 10.456 43.763 10.576C44.0306 8.86909 43.7608 7.70691 42.8379 6.65455C41.8204 5.496 39.9841 5 37.6342 5H30.8124C30.3324 5 29.923 5.34909 29.8488 5.824L27.0073 23.8349C26.9941 23.9185 26.9991 24.004 27.0221 24.0855C27.045 24.167 27.0854 24.2426 27.1403 24.307C27.1953 24.3714 27.2635 24.4231 27.3404 24.4586C27.4172 24.4942 27.5008 24.5126 27.5855 24.5127H31.7971L32.8546 17.8036L33.9921 10.5993Z" fill="#253B80"/>
<rect x="0.25" y="0.25" width="71.5" height="31.5" rx="3.75" stroke="#E8ECEE" stroke-width="0.5"/>
</svg>
