<svg width="40" height="40" viewBox="0 0 40 40" fill="none" xmlns="http://www.w3.org/2000/svg">
<path d="M37.825 17.496C38.9188 17.3424 39.6909 16.3274 39.4288 15.2544C38.7164 12.3375 37.3539 9.60965 35.4333 7.27944C33.0874 4.43319 30 2.29112 26.5126 1.09005C23.0252 -0.111016 19.2735 -0.324293 15.6725 0.473799C12.0714 1.27189 8.76118 3.05026 6.10777 5.6123C3.45435 8.17434 1.56112 11.4202 0.637372 14.9911C-0.286373 18.562 -0.204643 22.3188 0.873525 25.8462C1.95169 29.3735 3.9843 32.534 6.74663 34.9783C9.00813 36.9793 11.6866 38.4365 14.5768 39.2507C15.6399 39.5502 16.6813 38.8141 16.8732 37.7263C17.0651 36.6386 16.3331 35.6133 15.2778 35.2873C13.1123 34.6184 11.106 33.4946 9.3973 31.9826C7.18744 30.0272 5.56135 27.4988 4.69882 24.677C3.83629 21.8551 3.7709 18.8496 4.5099 15.9929C5.24889 13.1362 6.76348 10.5395 8.88621 8.48984C11.0089 6.44021 13.6571 5.01751 16.538 4.37904C19.4188 3.74057 22.4201 3.91119 25.2101 4.87204C28 5.83289 30.4699 7.54655 32.3467 9.82355C33.7978 11.5842 34.8507 13.6286 35.4433 15.8162C35.7321 16.8823 36.7312 17.6497 37.825 17.496Z" fill="#9399A1"/>
<path d="M38 20C39.1046 20 40.0104 20.8976 39.9001 21.9967C39.7053 23.9382 39.227 25.8443 38.4776 27.6537C37.4725 30.0802 35.9993 32.285 34.1421 34.1421C32.285 35.9993 30.0802 37.4725 27.6537 38.4776C25.8443 39.227 23.9382 39.7053 21.9967 39.9001C20.8976 40.0104 20 39.1046 20 38C20 36.8954 20.8989 36.0129 21.9948 35.8752C23.4105 35.6973 24.7991 35.3304 26.1229 34.7821C28.0641 33.978 29.828 32.7994 31.3137 31.3137C32.7994 29.828 33.978 28.0641 34.7821 26.1229C35.3304 24.7991 35.6973 23.4105 35.8752 21.9948C36.0129 20.8989 36.8954 20 38 20Z" fill="#E63946"/>
</svg>
