<svg width="24" height="24" viewBox="0 0 24 24" fill="none" xmlns="http://www.w3.org/2000/svg">
<g clip-path="url(#clip0)">
<path fill-rule="evenodd" clip-rule="evenodd" d="M23.7947 11.1197C23.5201 10.8451 23.0749 10.8451 22.8003 11.1197L22.2372 11.6827C22.2323 8.9177 21.1535 6.31895 19.1977 4.36324C17.2376 2.40306 14.6314 1.32353 11.8593 1.32353C7.98459 1.32353 4.45987 3.45738 2.66053 6.89233C2.48029 7.2363 2.61309 7.66127 2.9571 7.84145C3.30103 8.02164 3.726 7.88884 3.90618 7.54488C5.46196 4.57483 8.50945 2.72978 11.8593 2.72978C16.8004 2.72978 20.8212 6.74491 20.831 11.6838L20.2668 11.1196C19.9922 10.845 19.547 10.845 19.2724 11.1196C18.9978 11.3942 18.9978 11.8394 19.2724 12.114L21.0048 13.8464C21.1337 13.9941 21.3229 14.0879 21.5343 14.0879C21.7532 14.0879 21.9487 13.9878 22.0776 13.831L23.7946 12.114C24.0693 11.8394 24.0693 11.3942 23.7947 11.1197ZM21.0435 16.1586C20.6995 15.9783 20.2745 16.1112 20.0944 16.4552C18.5386 19.4252 15.4911 21.2703 12.1413 21.2703C7.20012 21.2703 3.17927 17.2552 3.16962 12.3162L3.73385 12.8804C3.87115 13.0177 4.0511 13.0864 4.23101 13.0864C4.41091 13.0864 4.59091 13.0178 4.72816 12.8804C5.00276 12.6058 5.00276 12.1607 4.72816 11.8861L2.99529 10.1531C2.86638 10.0057 2.67743 9.91216 2.46626 9.91216C2.2473 9.91216 2.05179 10.0123 1.92284 10.1692L0.205945 11.8861C-0.0686484 12.1606 -0.0686484 12.6058 0.205945 12.8804C0.480492 13.155 0.925711 13.155 1.2003 12.8804L1.76337 12.3174C1.76829 15.0824 2.84716 17.6812 4.80284 19.6368C6.76301 21.597 9.36921 22.6765 12.1414 22.6765C16.016 22.6765 19.5408 20.5427 21.3401 17.1077C21.5203 16.7637 21.3875 16.3388 21.0435 16.1586ZM11.2284 10.3868C11.6229 10.6962 12.3264 10.9677 12.9625 11.1926C14.1001 11.5947 14.7328 12.6484 14.5367 13.8144C14.4403 14.3879 14.1518 14.9201 13.7242 15.3129C13.4225 15.5901 13.0695 15.7849 12.6821 15.8915V16.2805C12.6821 16.6688 12.3673 16.9836 11.979 16.9836C11.5907 16.9836 11.2759 16.6688 11.2759 16.2805V15.9591C10.7695 15.9046 10.354 15.7551 9.79094 15.3867C9.46596 15.1742 9.37488 14.7384 9.58746 14.4134C9.80008 14.0884 10.2359 13.9974 10.5608 14.21C11.0829 14.5515 11.2947 14.5854 11.9743 14.5806C12.6674 14.576 13.0696 14.0593 13.1499 13.5813C13.1896 13.3455 13.205 12.7699 12.4938 12.5185C11.4256 12.1408 10.8075 11.8438 10.3605 11.4933C9.81799 11.0677 9.56988 10.3316 9.71299 9.57227C9.86847 8.74727 10.4434 8.09064 11.2135 7.85866C11.2278 7.85434 11.2419 7.85049 11.2561 7.84663C11.2627 7.84483 11.2693 7.84302 11.2759 7.84117V7.50916C11.2759 7.12084 11.5907 6.80603 11.979 6.80603C12.3673 6.80603 12.6821 7.12084 12.6821 7.50916V7.79537C13.2121 7.91284 13.5818 8.15472 13.7294 8.26506C14.0404 8.49761 14.104 8.93824 13.8715 9.24925C13.639 9.56027 13.1984 9.62388 12.8874 9.39142C12.7245 9.26964 12.2747 9.00775 11.6191 9.20519C11.2197 9.32552 11.1169 9.71594 11.0949 9.83275C11.0508 10.0669 11.1044 10.2896 11.2284 10.3868Z" fill="#1D3557"/>
</g>
<defs>
<clipPath id="clip0">
<rect width="24" height="24" fill="white"/>
</clipPath>
</defs>
</svg>
