<svg width="24" height="24" viewBox="0 0 24 24" fill="none" xmlns="http://www.w3.org/2000/svg">
<path fill-rule="evenodd" clip-rule="evenodd" d="M1 2C0.447715 2 0 2.44772 0 3V16C0 16.5523 0.447715 17 1 17H2.33682C2.12085 17.4546 2 17.9632 2 18.5C2 20.433 3.567 22 5.5 22C7.433 22 9 20.433 9 18.5C9 17.9632 8.87915 17.4546 8.66318 17H15.3368C15.1208 17.4546 15 17.9632 15 18.5C15 20.433 16.567 22 18.5 22C20.433 22 22 20.433 22 18.5C22 17.9632 21.8792 17.4546 21.6632 17H23C23.5523 17 24 16.5523 24 16V11C24 10.7348 23.8946 10.4804 23.7071 10.2929L20.7071 7.29289C20.5196 7.10536 20.2652 7 20 7H17V3C17 2.44772 16.5523 2 16 2H1ZM18.5 15H22V11.4142L19.5858 9H17V15H18.5ZM18.5 17C17.6716 17 17 17.6716 17 18.5C17 19.3284 17.6716 20 18.5 20C19.3284 20 20 19.3284 20 18.5C20 17.6716 19.3284 17 18.5 17ZM4 18.5C4 17.6716 4.67157 17 5.5 17C6.32843 17 7 17.6716 7 18.5C7 19.3284 6.32843 20 5.5 20C4.67157 20 4 19.3284 4 18.5ZM15 15H5.5H2V4H15V8V15Z" fill="white"/>
</svg>
