<svg width="480" height="264" viewBox="0 0 480 264" fill="none" xmlns="http://www.w3.org/2000/svg">
<path d="M480 235.864C480 251.386 377.569 264 251.195 264C124.853 264 22.4219 251.418 22.4219 235.864C22.4219 220.342 124.853 207.729 251.195 207.729C377.569 207.729 480 220.311 480 235.864Z" fill="#1D3557" fill-opacity="0.15"/>
<path d="M61.9652 194.262C61.9652 194.704 61.6164 195.084 61.1407 195.084H54.8616C54.4177 195.084 54.0371 194.736 54.0371 194.262V186.58C54.0371 186.137 54.3859 185.758 54.8616 185.758H61.1407C61.5847 185.758 61.9652 186.106 61.9652 186.58V194.262Z" fill="#E63946"/>
<path d="M427.675 43.9418C426.755 42.1715 426.026 41.9818 423.203 41.9818H338.816V199.667H449.429C452.125 199.667 453.362 198.656 453.362 196.791V119.149L427.675 43.9418Z" fill="#1D3557"/>
<path d="M445.748 199.573C445.114 172.164 422.63 150.098 394.977 150.098C367.323 150.098 344.808 172.132 344.205 199.573H445.748Z" fill="#1D3557"/>
<path d="M434.184 210.077C439.31 188.464 425.897 166.767 404.225 161.617C382.553 156.466 360.829 169.812 355.703 191.426C350.577 213.039 363.99 234.736 385.662 239.886C407.334 245.037 429.058 231.691 434.184 210.077Z" fill="#1D3557"/>
<path d="M416.986 200.742C416.986 212.85 407.123 222.682 394.977 222.682C382.831 222.682 372.969 212.882 372.969 200.742C372.969 188.635 382.831 178.803 394.977 178.803C407.123 178.835 416.986 188.635 416.986 200.742Z" fill="white"/>
<path d="M394.98 171.595C378.806 171.595 365.709 184.652 365.709 200.774C365.709 216.897 378.806 229.953 394.98 229.953C411.153 229.953 424.25 216.897 424.25 200.774C424.25 184.652 411.153 171.595 394.98 171.595ZM394.98 218.699C385.022 218.699 376.967 210.669 376.967 200.743C376.967 190.816 385.022 182.786 394.98 182.786C404.906 182.786 412.992 190.816 412.992 200.743C412.992 210.669 404.906 218.699 394.98 218.699Z" fill="#E7EBED"/>
<path d="M325.354 171.652H74.3086V184.67H325.354V171.652Z" fill="#1D3557"/>
<path d="M338.815 34.4898H325.273V199.636H338.815V34.4898Z" fill="#1D3557"/>
<path d="M338.813 183.956H58.8555V199.699H338.813V183.956Z" fill="#1D3557"/>
<path d="M338.813 191.764H58.8555V199.668H338.813V191.764Z" fill="#1D3557"/>
<path d="M324.147 171.722C324.147 171.731 324.145 171.744 324.126 171.762C324.106 171.782 324.074 171.797 324.037 171.797H64.8834C64.8213 171.797 64.7964 171.776 64.7894 171.769C64.7844 171.764 64.7811 171.759 64.7787 171.754C64.7766 171.748 64.7734 171.739 64.7734 171.722V1.07485C64.7734 1.06536 64.7754 1.0523 64.7942 1.03437C64.8149 1.01445 64.8464 1 64.8834 1H324.037C324.099 1 324.124 1.02063 324.131 1.0275C324.136 1.03233 324.139 1.03738 324.142 1.04293C324.144 1.04804 324.147 1.05782 324.147 1.07485V171.722Z" fill="#1D3557" stroke="white" stroke-width="2"/>
<path d="M166.744 199.762C166.11 172.322 143.626 150.288 115.973 150.288C88.3195 150.288 65.8037 172.322 65.2012 199.762H166.744Z" fill="#1D3557"/>
<path d="M156.311 200.932C156.311 223.124 138.267 241.144 115.973 241.144C93.7108 241.144 75.6348 223.156 75.6348 200.932C75.6348 178.74 93.6791 160.72 115.973 160.72C138.235 160.72 156.311 178.74 156.311 200.932Z" fill="#1D3557"/>
<path d="M137.982 200.932C137.982 213.04 128.119 222.871 115.973 222.871C103.827 222.871 93.9648 213.04 93.9648 200.932C93.9648 188.824 103.827 178.992 115.973 178.992C128.119 179.024 137.982 188.824 137.982 200.932Z" fill="white"/>
<path d="M115.976 171.753C99.8023 171.753 86.7051 184.809 86.7051 200.932C86.7051 217.054 99.8023 230.111 115.976 230.111C132.149 230.111 145.246 217.054 145.246 200.932C145.246 184.809 132.149 171.753 115.976 171.753ZM115.976 218.888C106.05 218.888 97.963 210.858 97.963 200.932C97.963 191.037 106.018 182.976 115.976 182.976C125.933 182.976 133.988 191.005 133.988 200.932C133.988 210.858 125.902 218.888 115.976 218.888Z" fill="#E7EBED"/>
<path d="M435.666 128.127H345.539V51.3394H417.368L435.666 108.843V128.127Z" fill="#E7EBED"/>
<path d="M428.975 122.405H352.23V57.0297H413.404L428.975 105.998V122.405Z" fill="white"/>
<path d="M390.601 57.0613L373.477 122.405H381.69L398.847 57.0613H390.601Z" fill="white"/>
<path d="M382.01 56.998L364.854 122.405H370.34L387.369 57.0296L382.01 56.998Z" fill="white"/>
<path d="M453.393 136.631H442.071C441.152 136.631 440.391 137.39 440.391 138.307V154.208C440.391 155.125 441.152 155.884 442.071 155.884H453.393V136.631Z" fill="#E63946"/>
<path d="M451.362 141.626C451.362 141.848 451.172 142.037 450.95 142.037H443.815C443.593 142.037 443.402 141.848 443.402 141.626V139.761C443.402 139.54 443.593 139.35 443.815 139.35H450.95C451.172 139.35 451.362 139.54 451.362 139.761V141.626Z" fill="white"/>
<path d="M0 116.02L61.2684 112.258V120.446L0 116.02Z" fill="#EBEBEB"/>
<path d="M0 127.97L41.6067 124.65V131.921L0 127.97Z" fill="#EBEBEB"/>
<path d="M0 151.837L56.9238 148.486V155.789L0 151.837Z" fill="#EBEBEB"/>
<path d="M0 139.919L82.9914 136.568V143.871L0 139.919Z" fill="#EBEBEB"/>
<path fill-rule="evenodd" clip-rule="evenodd" d="M99.0536 85.2355L101.432 87.607V90.0428L96.6333 94.8432H96.6152V75.6308H101.432L101.432 82.8565L99.0536 85.2355Z" fill="white"/>
<path d="M103.936 81.8407L100.53 85.237L110.069 94.8431L116.88 94.8431L103.936 81.8407Z" fill="#E63946"/>
<path fill-rule="evenodd" clip-rule="evenodd" d="M88.1855 77.9865L92.9462 73.2301H111.002L106.197 78.0332H88.1855V77.9865Z" fill="white"/>
<path d="M100.528 85.2367L103.934 88.633L119.353 73.2277L112.541 73.2277L100.528 85.2367Z" fill="#E63946"/>
<path d="M138.615 77.7391C138.796 77.7391 138.952 77.8047 139.083 77.9359C139.215 78.067 139.281 78.2228 139.281 78.4032V81.0103C139.281 81.1906 139.215 81.3464 139.083 81.4776C138.952 81.6087 138.796 81.6743 138.615 81.6743H134.277V94.2916C134.277 94.4719 134.211 94.6277 134.08 94.7589C133.948 94.89 133.792 94.9556 133.611 94.9556H130.382C130.201 94.9556 130.045 94.89 129.914 94.7589C129.782 94.6277 129.717 94.4719 129.717 94.2916V81.6743H125.378C125.198 81.6743 125.042 81.6087 124.91 81.4776C124.779 81.3464 124.713 81.1906 124.713 81.0103V78.4032C124.713 78.2228 124.779 78.067 124.91 77.9359C125.042 77.8047 125.198 77.7391 125.378 77.7391H138.615Z" fill="white"/>
<path d="M153.784 94.2916C153.784 94.4719 153.719 94.6277 153.587 94.7589C153.456 94.89 153.3 94.9556 153.119 94.9556H150.013C149.832 94.9556 149.676 94.89 149.545 94.7589C149.413 94.6277 149.347 94.4719 149.347 94.2916V88.069C149.347 87.364 149.175 86.7983 148.83 86.372C148.485 85.9457 147.942 85.7325 147.203 85.7325C146.463 85.7325 145.921 85.9457 145.576 86.372C145.247 86.7983 145.083 87.364 145.083 88.069V94.2916C145.083 94.4719 145.017 94.6277 144.886 94.7589C144.754 94.89 144.598 94.9556 144.418 94.9556H141.312C141.131 94.9556 140.975 94.89 140.843 94.7589C140.712 94.6277 140.646 94.4719 140.646 94.2916V78.1572C140.646 77.9769 140.712 77.8211 140.843 77.6899C140.975 77.5587 141.131 77.4932 141.312 77.4932H144.418C144.598 77.4932 144.754 77.5587 144.886 77.6899C145.017 77.8211 145.083 77.9769 145.083 78.1572V83.396C145.362 83.0516 145.798 82.7237 146.39 82.4122C146.981 82.0842 147.663 81.9203 148.435 81.9203C149.224 81.9203 149.947 82.035 150.605 82.2646C151.262 82.4778 151.821 82.8139 152.281 83.273C152.757 83.7321 153.127 84.3142 153.39 85.0192C153.653 85.7243 153.784 86.5605 153.784 87.5279V94.2916Z" fill="white"/>
<path d="M160.355 89.9628C160.355 90.34 160.42 90.6515 160.552 90.8975C160.7 91.1434 160.881 91.3402 161.094 91.4877C161.308 91.6353 161.546 91.7419 161.809 91.8075C162.072 91.8567 162.327 91.8813 162.573 91.8813C163.066 91.8813 163.452 91.8321 163.732 91.7337C164.028 91.6353 164.274 91.4959 164.471 91.3156C164.652 91.168 164.783 91.0778 164.866 91.045C164.948 90.9958 165.087 90.9712 165.285 90.9712H168.489C168.851 90.9712 169.031 91.1516 169.031 91.5123C169.031 91.7091 168.908 92.0124 168.662 92.4223C168.415 92.8159 168.029 93.2258 167.503 93.6521C166.994 94.062 166.328 94.4227 165.506 94.7343C164.685 95.0458 163.707 95.2016 162.573 95.2016C161.505 95.2016 160.552 95.054 159.714 94.7589C158.892 94.4473 158.194 94.0046 157.619 93.4307C157.06 92.8569 156.633 92.16 156.337 91.3402C156.058 90.5203 155.918 89.5939 155.918 88.5609C155.918 87.6099 156.058 86.7327 156.337 85.9293C156.633 85.1094 157.06 84.4044 157.619 83.8141C158.194 83.2238 158.892 82.7647 159.714 82.4368C160.552 82.0924 161.505 81.9203 162.573 81.9203C163.773 81.9203 164.792 82.1252 165.63 82.5351C166.484 82.9287 167.174 83.4452 167.7 84.0846C168.243 84.7241 168.629 85.4456 168.859 86.249C169.105 87.036 169.229 87.8231 169.229 88.6101V89.2988C169.229 89.4791 169.163 89.6349 169.031 89.7661C168.9 89.8973 168.744 89.9628 168.563 89.9628H160.355ZM162.573 85.2406C161.883 85.2406 161.357 85.4456 160.996 85.8555C160.634 86.2654 160.42 86.7245 160.355 87.2328H164.792C164.726 86.7245 164.512 86.2654 164.151 85.8555C163.789 85.4456 163.263 85.2406 162.573 85.2406Z" fill="white"/>
<path d="M191.618 94.144C191.668 94.2096 191.692 94.2998 191.692 94.4145C191.692 94.5621 191.635 94.6933 191.52 94.8081C191.421 94.9064 191.298 94.9556 191.15 94.9556H187.231C187.001 94.9556 186.812 94.9064 186.664 94.8081C186.516 94.7097 186.368 94.5703 186.22 94.3899L181.562 88.5363V94.2916C181.562 94.4719 181.496 94.6277 181.364 94.7589C181.233 94.89 181.077 94.9556 180.896 94.9556H177.667C177.486 94.9556 177.33 94.89 177.199 94.7589C177.067 94.6277 177.001 94.4719 177.001 94.2916V78.4032C177.001 78.2228 177.067 78.067 177.199 77.9359C177.33 77.8047 177.486 77.7391 177.667 77.7391H180.896C181.077 77.7391 181.233 77.8047 181.364 77.9359C181.496 78.067 181.562 78.2228 181.562 78.4032V83.5927L185.9 78.2802C185.982 78.1818 186.089 78.067 186.22 77.9359C186.352 77.8047 186.574 77.7391 186.886 77.7391H190.731C190.879 77.7391 191.002 77.7965 191.101 77.9113C191.216 78.0097 191.273 78.1326 191.273 78.2802C191.273 78.395 191.249 78.4852 191.199 78.5507L185.111 85.9784L191.618 94.144Z" fill="white"/>
<path d="M192.164 91.3156C192.164 90.2334 192.575 89.3398 193.397 88.6347C194.235 87.9297 195.59 87.4132 197.464 87.0852L200.348 86.5933C200.348 86.1998 200.241 85.8801 200.027 85.6341C199.814 85.3718 199.444 85.2406 198.918 85.2406C198.54 85.2406 198.244 85.298 198.031 85.4128C197.833 85.5111 197.686 85.6013 197.587 85.6833C197.439 85.8145 197.299 85.8965 197.168 85.9293C197.036 85.962 196.88 85.9784 196.7 85.9784H193.569C193.405 85.9784 193.265 85.9293 193.15 85.8309C193.051 85.7325 193.01 85.6013 193.027 85.4374C193.06 85.0602 193.224 84.6667 193.52 84.2568C193.816 83.8469 194.218 83.4698 194.728 83.1254C195.253 82.7811 195.87 82.4942 196.576 82.2646C197.299 82.035 198.08 81.9203 198.918 81.9203C199.92 81.9203 200.791 82.0432 201.531 82.2892C202.27 82.5351 202.878 82.8795 203.355 83.3222C203.848 83.7485 204.209 84.265 204.439 84.8717C204.67 85.462 204.785 86.1178 204.785 86.8393V94.2916C204.785 94.4719 204.719 94.6277 204.587 94.7589C204.456 94.89 204.3 94.9556 204.119 94.9556H201.013C200.832 94.9556 200.676 94.89 200.545 94.7589C200.413 94.6277 200.348 94.4719 200.348 94.2916V93.6029C199.953 94.0948 199.46 94.4883 198.869 94.7835C198.294 95.0622 197.529 95.2016 196.576 95.2016C195.87 95.2016 195.237 95.1032 194.678 94.9064C194.136 94.7097 193.676 94.4391 193.298 94.0948C192.936 93.7505 192.657 93.3406 192.46 92.8651C192.263 92.3895 192.164 91.8731 192.164 91.3156ZM197.784 91.8813C198.146 91.8813 198.482 91.8239 198.795 91.7091C199.107 91.5779 199.378 91.4057 199.608 91.1926C199.838 90.9794 200.019 90.7335 200.15 90.4547C200.282 90.1596 200.348 89.8481 200.348 89.5201L198.08 89.8645C197.636 89.9464 197.275 90.0858 196.995 90.2826C196.732 90.4793 196.601 90.7335 196.601 91.045C196.601 91.3566 196.7 91.5779 196.897 91.7091C197.11 91.8239 197.406 91.8813 197.784 91.8813Z" fill="white"/>
<path d="M211.954 94.2916C211.954 94.4719 211.888 94.6277 211.757 94.7589C211.626 94.89 211.469 94.9556 211.289 94.9556H208.183C208.002 94.9556 207.846 94.89 207.715 94.7589C207.583 94.6277 207.517 94.4719 207.517 94.2916V78.1572C207.517 77.9769 207.583 77.8211 207.715 77.6899C207.846 77.5587 208.002 77.4932 208.183 77.4932H211.289C211.469 77.4932 211.626 77.5587 211.757 77.6899C211.888 77.8211 211.954 77.9769 211.954 78.1572V94.2916Z" fill="white"/>
<path d="M219.248 94.2916C219.248 94.4719 219.182 94.6277 219.051 94.7589C218.919 94.89 218.763 94.9556 218.582 94.9556H215.477C215.296 94.9556 215.14 94.89 215.008 94.7589C214.877 94.6277 214.811 94.4719 214.811 94.2916V78.1572C214.811 77.9769 214.877 77.8211 215.008 77.6899C215.14 77.5587 215.296 77.4932 215.477 77.4932H218.582C218.763 77.4932 218.919 77.5587 219.051 77.6899C219.182 77.8211 219.248 77.9769 219.248 78.1572V94.2916Z" fill="white"/>
<path d="M225.95 89.9628C225.95 90.34 226.016 90.6515 226.147 90.8975C226.295 91.1434 226.476 91.3402 226.69 91.4877C226.903 91.6353 227.141 91.7419 227.404 91.8075C227.667 91.8567 227.922 91.8813 228.169 91.8813C228.662 91.8813 229.048 91.8321 229.327 91.7337C229.623 91.6353 229.869 91.4959 230.067 91.3156C230.247 91.168 230.379 91.0778 230.461 91.045C230.543 90.9958 230.683 90.9712 230.88 90.9712H234.084C234.446 90.9712 234.627 91.1516 234.627 91.5123C234.627 91.7091 234.503 92.0124 234.257 92.4223C234.01 92.8159 233.624 93.2258 233.098 93.6521C232.589 94.062 231.923 94.4227 231.102 94.7343C230.28 95.0458 229.302 95.2016 228.169 95.2016C227.1 95.2016 226.147 95.054 225.309 94.7589C224.488 94.4473 223.789 94.0046 223.214 93.4307C222.655 92.8569 222.228 92.16 221.932 91.3402C221.653 90.5203 221.513 89.5939 221.513 88.5609C221.513 87.6099 221.653 86.7327 221.932 85.9293C222.228 85.1094 222.655 84.4044 223.214 83.8141C223.789 83.2238 224.488 82.7647 225.309 82.4368C226.147 82.0924 227.1 81.9203 228.169 81.9203C229.368 81.9203 230.387 82.1252 231.225 82.5351C232.08 82.9287 232.77 83.4452 233.296 84.0846C233.838 84.7241 234.224 85.4456 234.454 86.249C234.701 87.036 234.824 87.8231 234.824 88.6101V89.2988C234.824 89.4791 234.758 89.6349 234.627 89.7661C234.495 89.8973 234.339 89.9628 234.158 89.9628H225.95ZM228.169 85.2406C227.478 85.2406 226.952 85.4456 226.591 85.8555C226.229 86.2654 226.016 86.7245 225.95 87.2328H230.387C230.321 86.7245 230.108 86.2654 229.746 85.8555C229.385 85.4456 228.859 85.2406 228.169 85.2406Z" fill="white"/>
<path d="M240.997 87.7001C240.964 87.946 240.947 88.233 240.947 88.5609C240.947 88.8889 240.964 89.1758 240.997 89.4217C241.046 90.012 241.268 90.4875 241.662 90.8483C242.057 91.209 242.582 91.3894 243.24 91.3894C243.782 91.3894 244.193 91.3156 244.472 91.168C244.768 91.004 245.006 90.7827 245.187 90.5039C245.269 90.3728 245.36 90.258 245.458 90.1596C245.573 90.0612 245.721 90.012 245.902 90.012H249.131C249.312 90.012 249.468 90.0776 249.599 90.2088C249.747 90.34 249.813 90.4957 249.796 90.6761C249.78 90.9384 249.673 91.3238 249.476 91.8321C249.279 92.3404 248.934 92.8487 248.441 93.357C247.948 93.8489 247.282 94.2834 246.444 94.6605C245.606 95.0212 244.538 95.2016 243.24 95.2016C242.319 95.2016 241.457 95.0704 240.652 94.8081C239.863 94.5457 239.164 94.1686 238.556 93.6767C237.965 93.1848 237.488 92.5945 237.127 91.9058C236.782 91.2008 236.593 90.4137 236.56 89.5447C236.543 89.2988 236.535 88.9708 236.535 88.5609C236.535 88.151 236.543 87.8231 236.56 87.5771C236.593 86.7081 236.782 85.9293 237.127 85.2406C237.488 84.5355 237.965 83.9371 238.556 83.4452C239.164 82.9533 239.863 82.5761 240.652 82.3138C241.457 82.0514 242.319 81.9203 243.24 81.9203C244.538 81.9203 245.606 82.1088 246.444 82.486C247.282 82.8467 247.948 83.2812 248.441 83.7895C248.934 84.2814 249.279 84.7815 249.476 85.2898C249.673 85.7981 249.78 86.1834 249.796 86.4458C249.813 86.6261 249.747 86.7819 249.599 86.9131C249.468 87.0442 249.312 87.1098 249.131 87.1098H245.902C245.721 87.1098 245.573 87.0606 245.458 86.9622C245.36 86.8639 245.269 86.7491 245.187 86.6179C245.006 86.3392 244.768 86.126 244.472 85.9784C244.193 85.8145 243.782 85.7325 243.24 85.7325C242.582 85.7325 242.057 85.9129 241.662 86.2736C241.268 86.6343 241.046 87.1098 240.997 87.7001Z" fill="white"/>
<path d="M257.797 89.9628C257.797 90.34 257.879 90.6351 258.043 90.8483C258.208 91.045 258.479 91.1434 258.857 91.1434H260.829C261.009 91.1434 261.165 91.209 261.297 91.3402C261.428 91.4713 261.494 91.6271 261.494 91.8075V94.2916C261.494 94.4719 261.428 94.6277 261.297 94.7589C261.165 94.89 261.009 94.9556 260.829 94.9556H258.487C257.715 94.9556 257.008 94.8491 256.367 94.6359C255.743 94.4063 255.209 94.0866 254.765 93.6767C254.321 93.2504 253.976 92.7421 253.73 92.1518C253.483 91.5451 253.36 90.8647 253.36 90.1104V85.9784H251.536C251.355 85.9784 251.199 85.9129 251.067 85.7817C250.936 85.6505 250.87 85.4947 250.87 85.3144V82.8303C250.87 82.6499 250.936 82.4942 251.067 82.363C251.199 82.2318 251.355 82.1662 251.536 82.1662H253.36V78.1572C253.36 77.9769 253.426 77.8211 253.557 77.6899C253.688 77.5587 253.845 77.4932 254.025 77.4932H257.131C257.312 77.4932 257.468 77.5587 257.6 77.6899C257.731 77.8211 257.797 77.9769 257.797 78.1572V82.1662H260.582C260.763 82.1662 260.919 82.2318 261.05 82.363C261.182 82.4942 261.248 82.6499 261.248 82.8303V85.3144C261.248 85.4947 261.182 85.6505 261.05 85.7817C260.919 85.9129 260.763 85.9784 260.582 85.9784H257.797V89.9628Z" fill="white"/>
<path d="M268.017 94.2916C268.017 94.4719 267.951 94.6277 267.82 94.7589C267.689 94.89 267.532 94.9556 267.352 94.9556H264.246C264.065 94.9556 263.909 94.89 263.777 94.7589C263.646 94.6277 263.58 94.4719 263.58 94.2916V82.8303C263.58 82.6499 263.646 82.4942 263.777 82.363C263.909 82.2318 264.065 82.1662 264.246 82.1662H267.352C267.532 82.1662 267.689 82.2318 267.82 82.363C267.951 82.4942 268.017 82.6499 268.017 82.8303V94.2916ZM268.017 80.1494C268.017 80.3298 267.951 80.4856 267.82 80.6167C267.689 80.7479 267.532 80.8135 267.352 80.8135H264.246C264.065 80.8135 263.909 80.7479 263.777 80.6167C263.646 80.4856 263.58 80.3298 263.58 80.1494V77.6653C263.58 77.485 263.646 77.3292 263.777 77.198C263.909 77.0668 264.065 77.0013 264.246 77.0013H267.352C267.532 77.0013 267.689 77.0668 267.82 77.198C267.951 77.3292 268.017 77.485 268.017 77.6653V80.1494Z" fill="white"/>
<path d="M275.681 94.9556C275.434 94.9556 275.253 94.89 275.138 94.7589C275.04 94.6277 274.949 94.4883 274.867 94.3408L269.888 82.9287C269.872 82.8795 269.863 82.8221 269.863 82.7565C269.863 82.5925 269.921 82.4532 270.036 82.3384C270.151 82.2236 270.291 82.1662 270.455 82.1662H273.61C273.857 82.1662 274.037 82.2318 274.152 82.363C274.267 82.4942 274.358 82.6253 274.423 82.7565L277.135 89.1758L279.846 82.7565C279.912 82.6253 280.002 82.4942 280.118 82.363C280.233 82.2318 280.413 82.1662 280.66 82.1662H283.815C283.979 82.1662 284.119 82.2236 284.234 82.3384C284.349 82.4532 284.407 82.5925 284.407 82.7565C284.407 82.8221 284.398 82.8795 284.382 82.9287L279.403 94.3408C279.321 94.4883 279.222 94.6277 279.107 94.7589C279.008 94.89 278.836 94.9556 278.589 94.9556H275.681Z" fill="white"/>
<path d="M289.499 89.9628C289.499 90.34 289.565 90.6515 289.697 90.8975C289.844 91.1434 290.025 91.3402 290.239 91.4877C290.452 91.6353 290.691 91.7419 290.954 91.8075C291.217 91.8567 291.471 91.8813 291.718 91.8813C292.211 91.8813 292.597 91.8321 292.876 91.7337C293.172 91.6353 293.419 91.4959 293.616 91.3156C293.797 91.168 293.928 91.0778 294.01 91.045C294.092 90.9958 294.232 90.9712 294.429 90.9712H297.634C297.995 90.9712 298.176 91.1516 298.176 91.5123C298.176 91.7091 298.053 92.0124 297.806 92.4223C297.56 92.8159 297.173 93.2258 296.648 93.6521C296.138 94.062 295.473 94.4227 294.651 94.7343C293.829 95.0458 292.852 95.2016 291.718 95.2016C290.65 95.2016 289.697 95.054 288.858 94.7589C288.037 94.4473 287.338 94.0046 286.763 93.4307C286.204 92.8569 285.777 92.16 285.481 91.3402C285.202 90.5203 285.062 89.5939 285.062 88.5609C285.062 87.6099 285.202 86.7327 285.481 85.9293C285.777 85.1094 286.204 84.4044 286.763 83.8141C287.338 83.2238 288.037 82.7647 288.858 82.4368C289.697 82.0924 290.65 81.9203 291.718 81.9203C292.917 81.9203 293.936 82.1252 294.774 82.5351C295.629 82.9287 296.319 83.4452 296.845 84.0846C297.387 84.7241 297.773 85.4456 298.003 86.249C298.25 87.036 298.373 87.8231 298.373 88.6101V89.2988C298.373 89.4791 298.307 89.6349 298.176 89.7661C298.044 89.8973 297.888 89.9628 297.708 89.9628H289.499ZM291.718 85.2406C291.028 85.2406 290.502 85.4456 290.14 85.8555C289.779 86.2654 289.565 86.7245 289.499 87.2328H293.936C293.87 86.7245 293.657 86.2654 293.295 85.8555C292.934 85.4456 292.408 85.2406 291.718 85.2406Z" fill="white"/>
</svg>
