<svg width="24" height="24" viewBox="0 0 24 24" fill="none" xmlns="http://www.w3.org/2000/svg">
<rect y="3" width="24" height="18" rx="2" fill="white"/>
<mask id="mask0" mask-type="alpha" maskUnits="userSpaceOnUse" x="0" y="3" width="24" height="18">
<rect y="3" width="24" height="18" rx="2" fill="white"/>
</mask>
<g mask="url(#mask0)">
<path fill-rule="evenodd" clip-rule="evenodd" d="M24 3H0V4.2H24V3ZM24 5.39999H0V6.59999H24V5.39999ZM0 7.80001H24V9.00001H0V7.80001ZM24 10.2H0V11.4H24V10.2ZM0 12.6H24V13.8H0V12.6ZM24 15H0V16.2H24V15ZM0 17.4H24V18.6H0V17.4ZM24 19.8H0V21H24V19.8Z" fill="#D02F44"/>
<rect y="3" width="10.2857" height="8.4" fill="#46467F"/>
<g filter="url(#filter0_d)">
<path fill-rule="evenodd" clip-rule="evenodd" d="M2.28568 4.80001C2.28568 5.13138 2.02984 5.40001 1.71425 5.40001C1.39866 5.40001 1.14282 5.13138 1.14282 4.80001C1.14282 4.46864 1.39866 4.20001 1.71425 4.20001C2.02984 4.20001 2.28568 4.46864 2.28568 4.80001ZM4.57135 4.80001C4.57135 5.13138 4.31551 5.40001 3.99992 5.40001C3.68433 5.40001 3.42849 5.13138 3.42849 4.80001C3.42849 4.46864 3.68433 4.20001 3.99992 4.20001C4.31551 4.20001 4.57135 4.46864 4.57135 4.80001ZM6.28573 5.40001C6.60132 5.40001 6.85715 5.13138 6.85715 4.80001C6.85715 4.46864 6.60132 4.20001 6.28573 4.20001C5.97013 4.20001 5.7143 4.46864 5.7143 4.80001C5.7143 5.13138 5.97013 5.40001 6.28573 5.40001ZM9.14282 4.80001C9.14282 5.13138 8.88698 5.40001 8.57139 5.40001C8.2558 5.40001 7.99997 5.13138 7.99997 4.80001C7.99997 4.46864 8.2558 4.20001 8.57139 4.20001C8.88698 4.20001 9.14282 4.46864 9.14282 4.80001ZM2.85715 6.60002C3.17275 6.60002 3.42858 6.33139 3.42858 6.00002C3.42858 5.66865 3.17275 5.40002 2.85715 5.40002C2.54156 5.40002 2.28573 5.66865 2.28573 6.00002C2.28573 6.33139 2.54156 6.60002 2.85715 6.60002ZM5.71425 6.00002C5.71425 6.33139 5.45841 6.60002 5.14282 6.60002C4.82723 6.60002 4.57139 6.33139 4.57139 6.00002C4.57139 5.66865 4.82723 5.40002 5.14282 5.40002C5.45841 5.40002 5.71425 5.66865 5.71425 6.00002ZM7.42849 6.60002C7.74408 6.60002 7.99992 6.33139 7.99992 6.00002C7.99992 5.66865 7.74408 5.40002 7.42849 5.40002C7.1129 5.40002 6.85706 5.66865 6.85706 6.00002C6.85706 6.33139 7.1129 6.60002 7.42849 6.60002ZM9.14282 7.2C9.14282 7.53138 8.88698 7.8 8.57139 7.8C8.2558 7.8 7.99997 7.53138 7.99997 7.2C7.99997 6.86863 8.2558 6.6 8.57139 6.6C8.88698 6.6 9.14282 6.86863 9.14282 7.2ZM6.28573 7.8C6.60132 7.8 6.85715 7.53138 6.85715 7.2C6.85715 6.86863 6.60132 6.6 6.28573 6.6C5.97013 6.6 5.7143 6.86863 5.7143 7.2C5.7143 7.53138 5.97013 7.8 6.28573 7.8ZM4.57135 7.2C4.57135 7.53138 4.31551 7.8 3.99992 7.8C3.68433 7.8 3.42849 7.53138 3.42849 7.2C3.42849 6.86863 3.68433 6.6 3.99992 6.6C4.31551 6.6 4.57135 6.86863 4.57135 7.2ZM1.71425 7.8C2.02984 7.8 2.28568 7.53138 2.28568 7.2C2.28568 6.86863 2.02984 6.6 1.71425 6.6C1.39866 6.6 1.14282 6.86863 1.14282 7.2C1.14282 7.53138 1.39866 7.8 1.71425 7.8ZM3.42858 8.40001C3.42858 8.73138 3.17275 9.00001 2.85715 9.00001C2.54156 9.00001 2.28573 8.73138 2.28573 8.40001C2.28573 8.06864 2.54156 7.80001 2.85715 7.80001C3.17275 7.80001 3.42858 8.06864 3.42858 8.40001ZM5.14282 9.00001C5.45841 9.00001 5.71425 8.73138 5.71425 8.40001C5.71425 8.06864 5.45841 7.80001 5.14282 7.80001C4.82723 7.80001 4.57139 8.06864 4.57139 8.40001C4.57139 8.73138 4.82723 9.00001 5.14282 9.00001ZM7.99992 8.40001C7.99992 8.73138 7.74408 9.00001 7.42849 9.00001C7.1129 9.00001 6.85706 8.73138 6.85706 8.40001C6.85706 8.06864 7.1129 7.80001 7.42849 7.80001C7.74408 7.80001 7.99992 8.06864 7.99992 8.40001ZM8.57139 10.2C8.88698 10.2 9.14282 9.93139 9.14282 9.60002C9.14282 9.26865 8.88698 9.00002 8.57139 9.00002C8.2558 9.00002 7.99997 9.26865 7.99997 9.60002C7.99997 9.93139 8.2558 10.2 8.57139 10.2ZM6.85715 9.60002C6.85715 9.93139 6.60132 10.2 6.28573 10.2C5.97013 10.2 5.7143 9.93139 5.7143 9.60002C5.7143 9.26865 5.97013 9.00002 6.28573 9.00002C6.60132 9.00002 6.85715 9.26865 6.85715 9.60002ZM3.99992 10.2C4.31551 10.2 4.57135 9.93139 4.57135 9.60002C4.57135 9.26865 4.31551 9.00002 3.99992 9.00002C3.68433 9.00002 3.42849 9.26865 3.42849 9.60002C3.42849 9.93139 3.68433 10.2 3.99992 10.2ZM2.28568 9.60002C2.28568 9.93139 2.02984 10.2 1.71425 10.2C1.39866 10.2 1.14282 9.93139 1.14282 9.60002C1.14282 9.26865 1.39866 9.00002 1.71425 9.00002C2.02984 9.00002 2.28568 9.26865 2.28568 9.60002Z" fill="url(#paint0_linear)"/>
</g>
</g>
<defs>
<filter id="filter0_d" x="1.14282" y="4.20001" width="8" height="7.00001" filterUnits="userSpaceOnUse" color-interpolation-filters="sRGB">
<feFlood flood-opacity="0" result="BackgroundImageFix"/>
<feColorMatrix in="SourceAlpha" type="matrix" values="0 0 0 0 0 0 0 0 0 0 0 0 0 0 0 0 0 0 127 0"/>
<feOffset dy="1"/>
<feColorMatrix type="matrix" values="0 0 0 0 0 0 0 0 0 0 0 0 0 0 0 0 0 0 0.06 0"/>
<feBlend mode="normal" in2="BackgroundImageFix" result="effect1_dropShadow"/>
<feBlend mode="normal" in="SourceGraphic" in2="effect1_dropShadow" result="shape"/>
</filter>
<linearGradient id="paint0_linear" x1="1.14282" y1="4.20001" x2="1.14282" y2="10.2" gradientUnits="userSpaceOnUse">
<stop stop-color="white"/>
<stop offset="1" stop-color="#F0F0F0"/>
</linearGradient>
</defs>
</svg>
