<svg width="72" height="32" viewBox="0 0 72 32" fill="none" xmlns="http://www.w3.org/2000/svg">
<rect x="0.25" y="0.25" width="71.5" height="31.5" rx="3.75" fill="white"/>
<g clip-path="url(#clip0)">
<path d="M32.5333 23.7694H28.3209L30.9556 8.28101H35.1678L32.5333 23.7694Z" fill="#00579F"/>
<path d="M47.8034 8.6594C46.9726 8.34602 45.6547 8 44.0253 8C39.8654 8 36.9361 10.109 36.9181 13.1241C36.8836 15.3487 39.0154 16.5843 40.6099 17.326C42.2396 18.084 42.7936 18.5787 42.7936 19.2543C42.777 20.2919 41.4767 20.7702 40.2639 20.7702C38.5822 20.7702 37.681 20.5236 36.3116 19.9464L35.7569 19.6989L35.1675 23.1757C36.1554 23.6036 37.9756 23.9834 39.8654 24C44.2853 24 47.1628 21.9237 47.1969 18.7105C47.2137 16.9474 46.088 15.5964 43.6611 14.4924C42.1878 13.7837 41.2855 13.3059 41.2855 12.5808C41.3028 11.9216 42.0487 11.2464 43.7118 11.2464C45.0812 11.2134 46.0873 11.5263 46.8496 11.8395L47.2306 12.0039L47.8034 8.6594Z" fill="#00579F"/>
<path d="M53.4021 18.2824C53.749 17.3926 55.0839 13.9489 55.0839 13.9489C55.0664 13.982 55.4301 13.0427 55.6381 12.4661L55.9325 13.8006C55.9325 13.8006 56.7302 17.5081 56.9034 18.2824C56.2451 18.2824 54.2341 18.2824 53.4021 18.2824ZM58.6017 8.28101H55.3435C54.3387 8.28101 53.5753 8.56089 53.1418 9.56609L46.8849 23.7692H51.3048C51.3048 23.7692 52.0325 21.8576 52.1889 21.4459C52.6738 21.4459 56.9734 21.4459 57.5972 21.4459C57.7181 21.9896 58.0998 23.7692 58.0998 23.7692H62.0001L58.6017 8.28101Z" fill="#00579F"/>
<path d="M24.8025 8.28101L20.6773 18.8426L20.2265 16.7006C19.4638 14.229 17.0719 11.5436 14.4026 10.2084L18.1812 23.753H22.6357L29.2568 8.28101H24.8025Z" fill="#00579F"/>
<path d="M16.8466 8.28101H10.0693L10 8.59395C15.2867 9.87925 18.788 12.9774 20.2265 16.7013L18.7532 9.58295C18.5106 8.59374 17.7652 8.31364 16.8466 8.28101Z" fill="#FAA61A"/>
</g>
<rect x="0.25" y="0.25" width="71.5" height="31.5" rx="3.75" stroke="#E8ECEE" stroke-width="0.5"/>
<defs>
<clipPath id="clip0">
<rect width="52" height="16" fill="white" transform="translate(10 8)"/>
</clipPath>
</defs>
</svg>
