<svg width="100" height="100" viewBox="0 0 100 100" fill="none" xmlns="http://www.w3.org/2000/svg">
<g clip-path="url(#clip0)">
<path d="M99.8072 54.6193C98.9094 45.5883 94.8747 37.0743 88.4461 30.6455C82.9523 25.1518 76.2279 21.6215 69.1524 20.0517V15.0892C72.0423 14.3702 74.1904 11.7544 74.1904 8.64512C74.1904 4.98335 71.2115 2.00439 67.5497 2.00439H53.487C49.8252 2.00439 46.8462 4.98335 46.8462 8.64512C46.8462 11.7542 48.9943 14.37 51.884 15.0892V20.0656C44.8302 21.642 38.1281 25.1675 32.6499 30.6457C31.4511 31.8445 30.3456 33.1021 29.3337 34.4092C29.2846 34.4055 29.2356 34.4018 29.1856 34.4018H15.2672C14.1887 34.4018 13.3141 35.2762 13.3141 36.3549C13.3141 37.4337 14.1887 38.3081 15.2672 38.3081H26.676C25.2439 40.7056 24.0892 43.2234 23.2103 45.8152H1.95316C0.874623 45.8152 0 46.6897 0 47.7684C0 48.8471 0.874623 49.7215 1.95316 49.7215H22.1066C21.5437 52.1925 21.2206 54.7072 21.1372 57.2289H12.5002C11.4217 57.2289 10.547 58.1033 10.547 59.182C10.547 60.2608 11.4217 61.1352 12.5002 61.1352H21.1996C21.3644 63.6634 21.7708 66.1782 22.4191 68.6425H9.76578C8.68725 68.6425 7.81262 69.517 7.81262 70.5957C7.81262 71.6744 8.68725 72.5489 9.76578 72.5489H23.6656C25.5817 77.6175 28.576 82.3681 32.6499 86.442C39.0848 92.8769 47.6076 96.9125 56.648 97.8057C57.9382 97.933 59.2294 97.9961 60.5189 97.9961C68.1405 97.9961 75.6652 95.7904 82.0501 91.6325C82.954 91.0439 83.2097 89.8339 82.621 88.93C82.0323 88.026 80.8224 87.7704 79.9184 88.3591C65.9422 97.4602 47.2246 95.4924 35.4121 83.6799C21.5521 69.8199 21.5521 47.2682 35.4121 33.408C49.2719 19.5482 71.8236 19.5482 85.6838 33.408C97.4806 45.2051 99.4592 63.9067 90.3881 77.8761C89.8006 78.7808 90.0579 79.9906 90.9624 80.5779C91.8675 81.1654 93.0768 80.9082 93.6642 80.0035C98.5107 72.5395 100.692 63.5247 99.8072 54.6193ZM50.7526 8.64532C50.7526 7.13748 51.9791 5.9109 53.487 5.9109H67.5497C69.0575 5.9109 70.2841 7.13748 70.2841 8.64532C70.2841 10.1532 69.0575 11.3797 67.5497 11.3797H67.1993H53.8372H53.487C51.9791 11.3797 50.7526 10.153 50.7526 8.64532ZM55.7903 19.3941V15.286H65.2461V19.3871C62.1062 19.0136 58.9296 19.016 55.7903 19.3941Z" fill="#1D3557"/>
<path d="M87.0659 83.1069C86.5503 83.1069 86.0483 83.3159 85.6853 83.6792C85.32 84.0425 85.1128 84.5464 85.1128 85.0601C85.1128 85.5737 85.32 86.0776 85.6853 86.4409C86.0483 86.8062 86.5505 87.0132 87.0659 87.0132C87.5796 87.0132 88.0815 86.8062 88.4468 86.4409C88.8101 86.0776 89.019 85.5737 89.019 85.0601C89.019 84.5464 88.8103 84.0425 88.4468 83.6792C88.0815 83.3159 87.5794 83.1069 87.0659 83.1069Z" fill="#1D3557"/>
<path d="M60.5481 28.2444C43.8412 28.2444 30.249 41.8364 30.249 58.5435C30.249 75.2506 43.8412 88.8426 60.5481 88.8426C77.255 88.8426 90.8472 75.2506 90.8472 58.5435C90.8472 41.8364 77.255 28.2444 60.5481 28.2444ZM60.5481 84.9363C45.995 84.9363 34.1553 73.0965 34.1553 58.5435C34.1553 43.9905 45.995 32.1507 60.5481 32.1507C75.1013 32.1507 86.9409 43.9905 86.9409 58.5435C86.9409 73.0965 75.1013 84.9363 60.5481 84.9363Z" fill="#1D3557"/>
<path d="M72.9033 43.4265L63.2293 53.1003C62.4203 52.7003 61.5104 52.4743 60.5484 52.4743C59.5863 52.4743 58.6765 52.7003 57.8675 53.1003L53.538 48.7707C52.7751 48.008 51.5387 48.008 50.7756 48.7707C50.0129 49.5335 50.0129 50.7702 50.7756 51.5329L55.1052 55.8625C54.705 56.6715 54.4792 57.5814 54.4792 58.5434C54.4792 61.8899 57.2017 64.6126 60.5484 64.6126C63.8952 64.6126 66.6177 61.8899 66.6177 58.5434C66.6177 57.5814 66.3917 56.6715 65.9917 55.8625L75.3817 46.4725L75.6655 46.1887C76.4282 45.426 76.4282 44.1892 75.6655 43.4265C74.9028 42.6638 73.6664 42.6638 72.9033 43.4265ZM60.5484 60.7065C59.3559 60.7065 58.3855 59.7362 58.3855 58.5436C58.3855 57.351 59.3559 56.3806 60.5484 56.3806C61.741 56.3806 62.7114 57.351 62.7114 58.5436C62.7114 59.7362 61.741 60.7065 60.5484 60.7065Z" fill="#1D3557"/>
<path d="M81.4312 56.6143H79.6216C78.5431 56.6143 77.6685 57.4887 77.6685 58.5674C77.6685 59.6461 78.5431 60.5205 79.6216 60.5205H81.4312C82.5097 60.5205 83.3843 59.6461 83.3843 58.5674C83.3843 57.4887 82.5097 56.6143 81.4312 56.6143Z" fill="#1D3557"/>
<path d="M41.4744 56.5664H39.665C38.5865 56.5664 37.7119 57.4408 37.7119 58.5195C37.7119 59.5982 38.5865 60.4727 39.665 60.4727H41.4744C42.5529 60.4727 43.4275 59.5982 43.4275 58.5195C43.4275 57.4408 42.5529 56.5664 41.4744 56.5664Z" fill="#1D3557"/>
<path d="M60.5718 41.4231C61.6503 41.4231 62.5249 40.5487 62.5249 39.47V37.6606C62.5249 36.5819 61.6503 35.7075 60.5718 35.7075C59.4933 35.7075 58.6187 36.5819 58.6187 37.6606V39.47C58.6187 40.5487 59.4933 41.4231 60.5718 41.4231Z" fill="#1D3557"/>
<path d="M60.5239 75.6641C59.4454 75.6641 58.5708 76.5385 58.5708 77.6172V79.4266C58.5708 80.5053 59.4454 81.3797 60.5239 81.3797C61.6024 81.3797 62.4771 80.5053 62.4771 79.4266V77.6172C62.4771 76.5385 61.6024 75.6641 60.5239 75.6641Z" fill="#1D3557"/>
<path d="M1.95312 68.6416C1.43945 68.6416 0.935547 68.8506 0.572266 69.2139C0.208984 69.5771 0 70.0811 0 70.5947C0 71.1104 0.208789 71.6123 0.572266 71.9756C0.935742 72.3389 1.43945 72.5479 1.95312 72.5479C2.4668 72.5479 2.9707 72.3389 3.33379 71.9756C3.69707 71.6123 3.90625 71.1084 3.90625 70.5947C3.90625 70.0811 3.69727 69.5771 3.33379 69.2139C2.9707 68.8506 2.4668 68.6416 1.95312 68.6416Z" fill="#1D3557"/>
</g>
<defs>
<clipPath id="clip0">
<rect width="100" height="100" fill="white"/>
</clipPath>
</defs>
</svg>
