<svg width="100" height="100" viewBox="0 0 100 100" fill="none" xmlns="http://www.w3.org/2000/svg">
<path d="M98.3449 72.6786C99.2592 72.6786 100 72.0227 100 71.2137L99.9971 40.3645C99.9971 39.578 99.5624 38.8389 98.8344 38.3876C98.1063 37.9364 97.1731 37.8276 96.3376 38.0965L87.7239 40.8714V37.6549C87.7239 36.5372 87.1062 35.487 86.0717 34.8459C85.0371 34.2049 83.7113 34.0504 82.524 34.4325L82.3722 34.4813V26.799C84.436 26.7256 86.0904 25.2209 86.0904 23.3767V18.4677C86.0904 16.5769 84.3523 15.0384 82.2157 15.0384H79.7708C80.377 12.2972 79.7743 9.76513 78.0205 7.91512C78.0201 7.91473 78.0196 7.91434 78.0192 7.91395L73.1435 2.77076C71.1898 0.710197 68.1104 -0.253871 64.4704 0.0572636C61.0609 0.348671 57.5214 1.74302 54.504 3.98385C54.2741 4.15455 54.049 4.33072 53.8274 4.50963C53.3428 4.31627 52.8072 4.20611 52.242 4.20611H47.7582C47.1926 4.20611 46.6566 4.31647 46.1717 4.51002C45.9502 4.33112 45.7259 4.15416 45.4962 3.98346C42.4788 1.74321 38.9393 0.348671 35.5298 0.0572636C31.8896 -0.253676 28.8105 0.710002 26.8568 2.77076L21.9795 7.91512C20.2273 9.76318 19.6246 12.2972 20.2299 15.0384H17.7843C15.6477 15.0384 13.9096 16.5767 13.9096 18.4677V23.3771C13.9096 25.2213 15.564 26.726 17.6278 26.7994V55.3376L15.2224 56.1125L4.65506 46.7599C3.8723 46.0673 2.70644 45.8616 1.68314 46.2368C0.660722 46.6116 0 47.4868 0 48.4665L0.00286897 93.8615C0.00286897 94.648 0.437612 95.3871 1.16564 95.8385C1.62996 96.1263 2.17791 96.2748 2.73072 96.2748C3.04453 96.2748 3.3601 96.2267 3.66266 96.1295L12.2763 93.3546V96.5711C12.2763 97.6889 12.894 98.7391 13.9286 99.3801C14.5884 99.7891 15.367 100 16.1521 100C16.5981 100 17.0463 99.932 17.4762 99.7936L84.7776 78.1137L95.3447 87.4661C95.8677 87.929 96.5622 88.1742 97.2704 88.1742C97.6222 88.1742 97.9775 88.1136 98.3166 87.9892C99.3393 87.6144 100 86.7392 100 85.7595V78.4454C100 77.6364 99.2592 76.9805 98.3449 76.9805C97.4306 76.9805 96.6898 77.6364 96.6898 78.4454V84.513L81.4883 71.059L96.6898 66.1621V71.2135C96.6898 72.0227 97.4308 72.6786 98.3449 72.6786V72.6786ZM29.3928 51.5476L20.9383 44.0649V36.3618L35.7741 49.4921L29.3928 51.5476ZM39.2063 48.3864L20.9383 32.2184V26.8062H23.5273L41.8163 42.993V47.5456L39.2063 48.3864ZM56.4105 17.9681V23.8765H43.5897V17.9681H56.4105ZM71.8086 8.14188C71.7073 10.356 70.3951 12.8933 68.2108 15.0384H57.9076C58.8197 13.7093 60.0389 12.4642 61.5091 11.3724C64.7615 8.95712 68.6711 7.75438 71.8086 8.14188V8.14188ZM41.8163 26.8062V38.8497L28.2087 26.8062H41.8163ZM45.1266 42.3872C45.1266 42.3866 45.1266 42.3858 45.1266 42.3852V26.8062H54.8736V43.3395L45.1266 46.4794V42.3872ZM58.1839 33.7856L65.2148 40.0083L58.1839 42.2731V33.7856ZM68.6471 38.9028L58.1839 29.6424V26.8062H63.6835L75.0283 36.8471L68.6471 38.9028ZM78.4608 35.7414L68.365 26.8062H79.0619V35.5477L78.4608 35.7414ZM82.7802 18.4677V23.3771C82.7802 23.6525 82.5271 23.8767 82.2157 23.8767H59.7207V17.9681H82.2157C82.5271 17.9681 82.7802 18.1923 82.7802 18.4677ZM72.4051 15.0384C73.7402 13.2792 74.6161 11.4034 74.9599 9.57821L75.6202 9.9538C76.7086 11.2188 76.9738 13.0312 76.3773 15.0384H72.4051ZM70.6078 4.65397L71.0854 5.15788C67.2837 5.04909 62.9504 6.47761 59.3813 9.12821C58.1384 10.0513 57.0425 11.0729 56.1167 12.1632V7.63582C56.1167 7.32508 56.0658 7.02547 55.9777 6.73914C56.1909 6.56472 56.4091 6.39382 56.632 6.22839C61.5521 2.57407 67.9521 1.85337 70.6078 4.65397V4.65397ZM52.242 7.13621C52.5532 7.13621 52.8065 7.36023 52.8065 7.63582V15.0386H47.1937V7.63563C47.1937 7.36023 47.4468 7.13601 47.7582 7.13601H52.242V7.13621ZM29.3924 4.65397C32.0479 1.85317 38.4483 2.57427 43.3682 6.2282C43.5908 6.39363 43.8095 6.56414 44.0227 6.73835C43.9347 7.02488 43.8835 7.32488 43.8835 7.63563V12.1708C43.221 11.3899 42.4731 10.6429 41.6484 9.9456C40.987 9.38661 39.9394 9.4079 39.3083 9.99306C38.6771 10.578 38.701 11.5054 39.3619 12.0642C40.4424 12.9776 41.3611 13.9853 42.086 15.0384H31.7881C29.6071 12.8968 28.2958 10.3573 28.1925 8.14539C29.6462 7.97254 31.3183 8.13621 33.0191 8.62899C33.8881 8.88134 34.8227 8.46161 35.1072 7.69285C35.3916 6.9239 34.918 6.09675 34.0492 5.84499C32.28 5.33229 30.5488 5.10046 28.9215 5.15085L29.3924 4.65397ZM24.38 9.9538L25.041 9.57782C25.385 11.4028 26.2614 13.2794 27.5956 15.0384H23.6231C23.0273 13.0317 23.2927 11.2177 24.38 9.9538ZM17.22 23.3769V18.4677C17.22 18.1923 17.4731 17.9681 17.7845 17.9681H40.2795V23.8765H17.7845C17.4731 23.8765 17.22 23.6525 17.22 23.3769V23.3769ZM20.9383 48.2083L25.9606 52.6533L20.9383 54.271V48.2083ZM18.5117 63.1668L3.31045 68.0637V49.7128L18.5117 63.1668ZM82.1949 75.8278L16.3439 97.0402C16.104 97.1178 15.9169 97.0359 15.8271 96.9801C15.7373 96.9244 15.5863 96.7971 15.5863 96.5709V92.2882L78.0561 72.1649L82.1949 75.8278ZM96.6871 63.0455L3.3131 93.124V71.1803L38.2089 59.9394C39.068 59.6627 39.5107 58.822 39.198 58.0619C38.8855 57.3017 37.9357 56.9097 37.0765 57.1863L21.9439 62.0609L17.8053 58.398L83.6563 37.1854C83.8962 37.1079 84.0833 37.1899 84.1731 37.2456C84.263 37.3012 84.4139 37.4286 84.4139 37.6547V41.9374L44.7269 54.7218C43.868 54.9986 43.4251 55.8392 43.7378 56.5994C44.0503 57.3595 44.9999 57.7515 45.8592 57.475L96.6871 41.1016V63.0455Z" fill="#1D3557"/>
<path d="M80.2177 53.9023L83.7685 55.9616L85.447 60.0427C85.6915 60.6374 86.3262 61.0069 87.0026 61.0069C87.1906 61.0069 87.3817 60.9784 87.5684 60.9183C88.4275 60.6415 88.8702 59.8009 88.5575 59.0407L86.8792 54.9599L88.1037 51.3624C88.3672 50.5878 87.8716 49.7706 86.9962 49.5372C86.1218 49.3038 85.1976 49.7425 84.9339 50.5173L84.19 52.7034L82.0322 51.4521C81.2677 51.0087 80.2422 51.1978 79.7406 51.8743C79.2397 52.5507 79.4533 53.4587 80.2177 53.9023V53.9023Z" fill="#1D3557"/>
<path d="M41.9032 71.2492L44.5549 70.3951C45.4138 70.1183 45.8567 69.2777 45.544 68.5176C45.2315 67.7574 44.2821 67.365 43.4226 67.642L40.7709 68.4961L40.313 67.3826L44.1513 66.1461C45.0104 65.8693 45.4531 65.0287 45.1404 64.2686C44.8279 63.5084 43.8779 63.1162 43.019 63.3932L37.6255 65.1307C36.7664 65.4074 36.3238 66.248 36.6365 67.0082L38.2117 70.8389C38.2163 70.851 38.2194 70.8633 38.2245 70.8756C38.2278 70.8834 38.2326 70.8902 38.2359 70.8978L39.8167 74.7414C40.0612 75.3363 40.6959 75.7056 41.3723 75.7056C41.5603 75.7056 41.7514 75.6771 41.9381 75.617L47.3315 73.8795C48.1904 73.6027 48.6333 72.7621 48.3206 72.0019C48.0081 71.2416 47.0581 70.8494 46.1992 71.1264L42.3609 72.3629L41.9032 71.2492Z" fill="#1D3557"/>
<path d="M50.7634 71.215C51.0079 71.8099 51.6426 72.1793 52.319 72.1793C52.5068 72.1793 52.6981 72.1507 52.8848 72.0906C53.7437 71.8138 54.1866 70.9732 53.8739 70.2131L53.2566 68.7119L55.5396 67.9765L56.1568 69.4777C56.4693 70.2377 57.4182 70.6298 58.2782 70.3533C59.1371 70.0765 59.58 69.2359 59.2673 68.4758L58.0847 65.5998C58.0844 65.5992 58.0842 65.5986 58.084 65.598C58.0838 65.5974 58.0833 65.5969 58.0831 65.5963L57.0687 63.1295C56.6553 62.1242 55.8242 61.3215 54.7288 60.8695C53.6336 60.4176 52.4048 60.3699 51.2687 60.7357C50.1331 61.1017 49.2261 61.8371 48.7155 62.8066C48.2046 63.7762 48.151 64.8638 48.5643 65.8689L50.7634 71.215ZM51.7158 64.0445C51.8529 63.7842 52.0965 63.5869 52.4011 63.4887C52.7067 63.3904 53.036 63.4033 53.3301 63.5246C53.6241 63.6461 53.8472 63.8615 53.9582 64.1312L54.4073 65.2234L52.1243 65.9588L51.6752 64.8664C51.5645 64.5967 51.5786 64.3049 51.7158 64.0445V64.0445Z" fill="#1D3557"/>
<path d="M72.6587 64.162C72.9032 64.757 73.5379 65.1263 74.2142 65.1263C74.402 65.1263 74.5934 65.0978 74.7801 65.0376C75.639 64.7609 76.0819 63.9202 75.7692 63.1601L75.1519 61.6589L77.4349 60.9236L78.0521 62.4245C78.3646 63.1845 79.3133 63.5767 80.1735 63.3001C81.0324 63.0234 81.4753 62.1827 81.1626 61.4226L79.9793 58.5453V58.5451V58.5449L78.9642 56.0763C78.5508 55.0712 77.7197 54.2685 76.6243 53.8164C75.5288 53.3644 74.3008 53.3167 73.1643 53.6826C72.0286 54.0486 71.1216 54.7839 70.611 55.7535C70.1001 56.723 70.0465 57.8105 70.4598 58.8156L72.6587 64.162ZM73.6111 56.9915C73.7482 56.7312 73.9918 56.5339 74.2966 56.4357C74.6015 56.3376 74.9315 56.3501 75.2254 56.4716C75.5194 56.5931 75.7425 56.8083 75.8535 57.0783L76.3025 58.1704L74.0196 58.9058L73.5705 57.8134C73.4597 57.5437 73.4739 57.2517 73.6111 56.9915V56.9915Z" fill="#1D3557"/>
<path d="M32.7696 66.7645C31.8565 66.8047 31.1534 67.4922 31.1986 68.3002L31.4155 72.1619L28.7771 69.0801C28.2252 68.4352 27.1866 68.3084 26.4584 68.7973C25.7297 69.2858 25.5867 70.2047 26.1389 70.8494L32.016 77.7139C32.3353 78.0869 32.8279 78.2941 33.3355 78.2941C33.5244 78.2941 33.7159 78.2654 33.9011 78.2057C34.5834 77.9859 35.0241 77.3982 34.9881 76.7564L34.5048 68.1545C34.4592 67.3467 33.681 66.7236 32.7696 66.7645V66.7645Z" fill="#1D3557"/>
<path d="M23.4343 71.261C23.1218 70.5008 22.1725 70.108 21.3129 70.3854C20.454 70.6621 20.0114 71.5027 20.3238 72.2629L23.5038 79.9961C23.7484 80.591 24.383 80.9603 25.0594 80.9603C25.2472 80.9603 25.4385 80.9318 25.6252 80.8717C26.4841 80.5949 26.9268 79.7543 26.6143 78.9941L23.4343 71.261Z" fill="#1D3557"/>
<path d="M61.7107 67.6884C61.9406 68.2476 62.5299 68.6281 63.2016 68.6511C63.2232 68.6519 63.2449 68.6523 63.2665 68.6523C63.9131 68.6523 64.5032 68.3183 64.7724 67.7941L65.7708 65.8523L67.946 66.7718C68.5529 67.0284 69.2745 66.9345 69.7717 66.5345C70.2696 66.1347 70.4446 65.5081 70.2146 64.949L67.0344 57.2158C66.7217 56.4556 65.7719 56.0636 64.913 56.3402C64.0541 56.6169 63.6112 57.4576 63.9239 58.2177L65.7196 62.5839L65.6761 62.5656C65.2753 62.396 64.8143 62.3765 64.3966 62.5109C63.9791 62.6454 63.6401 62.9228 63.4563 63.2806L63.4364 63.3191L61.641 58.9533C61.3283 58.1929 60.378 57.8009 59.5196 58.0777C58.6607 58.3544 58.2178 59.1951 58.5305 59.9552L61.7107 67.6884Z" fill="#1D3557"/>
<path d="M20.0444 77.5461C19.732 76.786 18.7819 76.3938 17.923 76.6708L16.1682 77.2362C15.3091 77.5129 14.8664 78.3536 15.1791 79.1137C15.3726 79.5844 15.8116 79.9102 16.3209 80.0274C16.3165 80.1727 16.2803 80.3168 16.2086 80.4526C16.0715 80.7129 15.8279 80.9102 15.5231 81.0084C15.2184 81.1067 14.8885 81.094 14.5943 80.9725C14.3004 80.851 14.0773 80.6358 13.9663 80.3659L12.749 77.4065C12.5199 76.8493 12.8456 76.2311 13.4748 76.0284C13.8052 75.9223 14.1576 75.9446 14.4676 76.0926C15.2725 76.4762 16.2759 76.21 16.7097 75.4979C17.1434 74.7858 16.8426 73.8973 16.0378 73.5135C14.9019 72.9717 13.5547 72.8852 12.3427 73.2753C9.99842 74.0305 8.78512 76.3333 9.63827 78.4085L10.8555 81.368C11.2689 82.3731 12.1 83.1758 13.1954 83.628C13.8038 83.8789 14.4531 84.0053 15.105 84.0053C15.6266 84.0053 16.1501 83.9243 16.6552 83.7616C17.7909 83.3956 18.6979 82.6602 19.2085 81.6907C19.6269 80.8969 19.7331 80.0245 19.5329 79.1827C20.0645 78.7997 20.292 78.1481 20.0444 77.5461V77.5461Z" fill="#1D3557"/>
</svg>
