<svg width="100" height="100" viewBox="0 0 100 100" fill="none" xmlns="http://www.w3.org/2000/svg">
<g clip-path="url(#clip0)">
<path d="M44.2125 52.7117L18.5493 41.3892C17.5788 40.9615 16.4858 41.673 16.4858 42.7343C16.4858 43.7011 16.4858 75.369 16.4858 76.1713C16.4858 77.234 17.1142 78.1979 18.0864 78.627L43.0257 89.6301C43.2156 89.7139 43.4177 89.7551 43.6191 89.7551C43.9 89.7551 44.1794 89.6749 44.422 89.5167C44.8384 89.2452 45.0894 88.7819 45.0894 88.285C45.0894 87.4319 45.0894 55.0213 45.0894 54.0568C45.0892 53.4742 44.7455 52.9468 44.2125 52.7117ZM42.1486 86.0293L19.4259 76.0043V54.1037L42.1486 64.1289V86.0293ZM42.1486 60.915L19.4259 50.8896V44.99L42.1486 55.0152V60.915Z" fill="#1D3557"/>
<path d="M50.4048 15.5546V12.2764C51.6527 12.3698 52.0812 12.9657 52.6027 12.9657C53.2919 12.9657 53.5898 12.1088 53.5898 11.6805C53.5898 10.6001 51.6154 10.2463 50.4048 10.209V9.72466C50.4048 9.48286 50.0882 9.25903 49.7716 9.25903C49.4175 9.25903 49.1384 9.48267 49.1384 9.72466V10.2463C47.2759 10.4885 45.5249 11.5127 45.5249 13.8782C45.5249 16.2622 47.4435 16.9885 49.1384 17.6217V21.3282C47.4995 21.1421 46.9405 19.9313 46.2327 19.9313C45.6554 19.9313 45.1899 20.7135 45.1899 21.235C45.1899 22.278 46.8847 23.4887 49.1386 23.5446V24.0661C49.1386 24.3083 49.4179 24.5317 49.7718 24.5317C50.0884 24.5317 50.405 24.3083 50.405 24.0661V23.4887C52.4911 23.1534 53.9251 21.8309 53.9251 19.5401C53.9249 17.0073 52.0622 16.1692 50.4048 15.5546ZM49.2872 15.1448C48.4304 14.8094 47.797 14.4555 47.797 13.6362C47.797 12.9284 48.3558 12.4813 49.2872 12.3325V15.1448ZM50.2558 21.3098V18.069C51.0568 18.4231 51.6529 18.87 51.6529 19.7827C51.6529 20.6581 51.0753 21.1421 50.2558 21.3098Z" fill="#1D3557"/>
<path d="M88.4251 60.6775C87.6129 60.6775 86.9549 61.3355 86.9549 62.1476V80.3937C86.9549 80.5312 86.8735 80.656 86.7479 80.7115L51.4701 96.2756V48.2398L60.6729 44.1796L86.9547 32.5841V55.2868C86.9547 56.0989 87.6128 56.757 88.4249 56.757C89.237 56.757 89.895 56.0989 89.895 55.2868C89.895 54.4378 89.8948 30.0087 89.8948 30.3262C89.895 29.7407 89.5409 29.2104 89.0114 28.9801L67.5674 19.6545C68.5842 10.1531 62.069 1.87188 53.331 0.0335902C52.5363 -0.134965 51.757 0.374802 51.5898 1.16953C51.4224 1.96406 51.931 2.74356 52.7258 2.91075C63.9106 5.26446 68.6619 18.9481 60.9447 27.7022H57.8443C67.0557 20.1901 61.8504 4.77989 49.5949 4.77989C37.4724 4.77989 32.0498 19.969 41.3904 27.7022H38.2451C30.5814 19.0067 35.222 5.27149 46.4699 2.90957C47.2646 2.74278 47.7734 1.96328 47.6066 1.16875C47.4396 0.373825 46.6595 -0.13516 45.8658 0.0320277C36.8736 1.92012 30.4638 10.5072 31.6601 19.9907L10.9888 28.9803C10.4718 29.2049 10.1151 29.7223 10.1063 30.3067C10.1063 30.3128 10.105 30.3186 10.105 30.3247C10.105 30.3253 10.1052 30.3258 10.1052 30.3264C10.1052 30.327 10.105 30.3278 10.105 30.3284V80.3937C10.105 81.6957 10.8745 82.8762 12.0653 83.4016L49.4066 99.8766C49.7722 100.038 50.209 100.046 50.5937 99.8766L87.9352 83.4018C89.1258 82.876 89.8952 81.6955 89.8952 80.3939V62.1478C89.8954 61.3355 89.2372 60.6775 88.4251 60.6775ZM49.5949 7.71994C53.9963 7.71994 57.8311 10.5408 59.1369 14.7395C61.8145 23.3471 52.6887 30.529 45.0408 26.6028C35.7025 21.803 39.1824 7.71994 49.5949 7.71994ZM13.045 80.3937V32.5841C14.0464 33.0257 47.7176 47.8814 48.5297 48.2398V96.2758L13.2521 80.7113C13.1263 80.656 13.045 80.5312 13.045 80.3937ZM50 45.6747L15.2394 30.3382L32.2849 22.9254C32.7933 24.6069 33.5513 26.2157 34.5445 27.7022H33.6974C32.8855 27.7022 32.2273 28.3602 32.2273 29.1723C32.2273 29.9844 32.8855 30.6424 33.6974 30.6424C34.8007 30.6424 63.4348 30.6424 65.4988 30.6424C66.311 30.6424 66.969 29.9844 66.969 29.1723C66.969 28.3602 66.311 27.7022 65.4988 27.7022H64.6451C65.6996 26.1239 66.4883 24.4071 66.9955 22.6124L84.7612 30.3383L50 45.6747Z" fill="#1D3557"/>
<path d="M38.4146 68.3491L24.2246 62.0886C23.4814 61.7614 22.6138 62.0975 22.2861 62.8403C21.9584 63.5833 22.2949 64.4511 23.0377 64.779L37.2277 71.0395C37.9744 71.3683 38.8398 71.0276 39.1662 70.2878C39.4939 69.5446 39.1574 68.677 38.4146 68.3491Z" fill="#1D3557"/>
<path d="M38.4146 74.9663L24.2246 68.7055C23.4816 68.3783 22.6138 68.7145 22.2861 69.4573C21.9584 70.2002 22.2949 71.068 23.0377 71.3957L37.2277 77.6563C37.9711 77.9844 38.8387 77.6473 39.1662 76.9047C39.4939 76.1616 39.1574 75.294 38.4146 74.9663Z" fill="#1D3557"/>
</g>
<defs>
<clipPath id="clip0">
<rect width="100" height="100" fill="white"/>
</clipPath>
</defs>
</svg>
