<svg width="100" height="100" viewBox="0 0 100 100" fill="none" xmlns="http://www.w3.org/2000/svg">
<g clip-path="url(#clip0)">
<path d="M99.4795 95.2074L76.617 60.9137C76.044 60.0543 75.0852 59.541 74.0522 59.541C73.019 59.541 72.0602 60.0543 71.4871 60.9137L68.4973 65.3984L54.7004 44.7031V25.5795H64.7135C64.7135 25.5795 64.7155 33.976 64.7188 34.0471C64.8367 36.5566 66.9393 38.5223 69.5055 38.5223H89.276C90.3875 38.5223 91.3842 37.9484 91.9422 36.9869C92.5002 36.0256 92.5041 34.8752 91.9526 33.9102L87.3231 25.8084C87.2963 25.7617 87.2963 25.7037 87.3231 25.6568L91.9526 17.5553C92.5041 16.5902 92.5002 15.4398 91.9422 14.4785C91.3842 13.517 90.3875 12.9432 89.276 12.9432H74.1147V7.93613C74.1147 5.34414 72.0061 3.23574 69.4143 3.23574H54.7006V3.08281C54.7004 1.38281 53.3176 0 51.6178 0H48.3823C46.6824 0 45.2994 1.38281 45.2994 3.08262V8.54824C45.2994 9.35742 45.9553 10.0131 46.7643 10.0131C47.5733 10.0131 48.2291 9.35742 48.2291 8.54824V3.08262C48.2291 2.99824 48.2979 2.92969 48.3823 2.92969H51.6178C51.7022 2.92969 51.7707 2.99844 51.7707 3.08262V40.6855C51.2598 40.3268 50.6444 40.1268 50 40.1268C49.3557 40.1268 48.7401 40.3266 48.2291 40.6855V14.4078C48.2291 13.5986 47.5733 12.943 46.7643 12.943C45.9553 12.943 45.2994 13.5986 45.2994 14.4078V44.7031L31.5026 65.3984L28.5127 60.9137C27.9397 60.0541 26.9809 59.541 25.9479 59.541C24.9149 59.541 23.9561 60.0541 23.383 60.9137L0.520536 95.2074C-0.1113 96.1553 -0.169894 97.3678 0.367411 98.3719C0.904911 99.3762 1.94632 100 3.08538 100H21.1848C21.9938 100 22.6496 99.3443 22.6496 98.5352C22.6496 97.726 21.9938 97.0703 21.1848 97.0703H13.909L34.8248 65.6965L43.3739 61.4221L49.1211 65.7324C49.642 66.123 50.3582 66.1232 50.8789 65.7324L56.626 61.4223L65.1754 65.6969L86.091 97.0703H27.0996C26.2907 97.0703 25.6348 97.726 25.6348 98.5352C25.6348 99.3443 26.2907 100 27.0996 100H96.9147C98.0537 100 99.095 99.3762 99.6325 98.3719C100.17 97.3676 100.111 96.1553 99.4795 95.2074V95.2074ZM69.4141 25.5795C70.3905 25.5795 71.1848 26.3738 71.1848 27.3502C71.1848 28.3266 70.3905 29.1209 69.4141 29.1209C68.8032 29.1209 68.2016 29.2434 67.6432 29.4709V25.5795H69.4141ZM89.276 15.8725C89.3024 15.8725 89.3641 15.8725 89.4084 15.9488C89.4528 16.0252 89.4219 16.0787 89.409 16.1016L84.7795 24.2029C84.2403 25.1463 84.2403 26.3186 84.7795 27.2617L89.409 35.3633C89.4219 35.3861 89.4528 35.4398 89.4084 35.516C89.3641 35.5924 89.3024 35.5924 89.276 35.5924H69.5055C68.5235 35.5924 67.6889 34.8373 67.6453 33.9092C67.6223 33.4182 67.7953 32.9529 68.1326 32.5996C68.4701 32.2457 68.9254 32.0506 69.4141 32.0506C72.0061 32.0506 74.1145 29.942 74.1145 27.3502V15.8725H89.276ZM69.4141 6.16523C70.3905 6.16523 71.1848 6.95957 71.1848 7.93594V22.9971C70.6379 22.7738 70.0403 22.6496 69.4141 22.6496H54.7004V6.16523H69.4141ZM3.08538 97.0703C3.05569 97.0703 2.99378 97.0703 2.95042 96.9896C2.90725 96.9088 2.94163 96.8572 2.95804 96.8324L25.8205 62.5387C25.8328 62.5201 25.8658 62.4705 25.9479 62.4705C26.0297 62.4705 26.0627 62.5201 26.0752 62.5387L29.7422 68.0391L10.3881 97.0703H3.08538ZM57.1264 58.3969C56.6301 58.1484 56.0362 58.2023 55.5922 58.5352L50 62.7295L44.4076 58.5352C43.9639 58.2025 43.3699 58.1486 42.8737 58.3969L38.1004 60.7836L49.8729 43.1248C49.8854 43.1061 49.9184 43.0564 50 43.0564C50.0817 43.0564 50.1147 43.1061 50.1272 43.1248L61.8996 60.7836L57.1264 58.3969ZM97.0496 96.9896C97.0063 97.0703 96.9446 97.0703 96.9149 97.0703H89.6121L70.258 68.0393L73.925 62.5387C73.9375 62.5199 73.9703 62.4705 74.0524 62.4705C74.1342 62.4705 74.1672 62.5199 74.1795 62.5387L97.042 96.8324C97.0584 96.8572 97.0926 96.9088 97.0496 96.9896V96.9896Z" fill="#1D3557"/>
</g>
<defs>
<clipPath id="clip0">
<rect width="100" height="100" fill="white"/>
</clipPath>
</defs>
</svg>
