<svg width="100" height="100" viewBox="0 0 100 100" fill="none" xmlns="http://www.w3.org/2000/svg">
<g clip-path="url(#clip0)">
<path d="M97.6223 56.9277C96.5631 56.7309 95.5422 57.4303 95.3451 58.4908C91.293 80.2803 72.2395 96.0938 50.0385 96.0938H50.0342C24.6178 96.0914 3.93789 75.4117 3.93555 49.9953C3.93438 37.6832 8.72793 26.1088 17.433 17.4035C26.1375 8.69922 37.7092 3.90625 50.0205 3.90625H50.025C55.0072 3.90664 59.8729 4.68906 64.5324 6.23535C62.1127 8.58652 60.6188 11.9713 60.6188 15.7914C60.6188 28.9574 78.6871 37.7072 79.4563 38.0732C79.7188 38.198 80.0055 38.2627 80.2955 38.2627C80.315 38.2627 80.3348 38.2625 80.3545 38.2619L80.4334 38.2596C80.7049 38.2514 80.9717 38.1865 81.2166 38.0695C81.6291 37.8725 87.0397 35.2428 91.9438 30.8008C93.5066 34.2055 94.6451 37.7855 95.3356 41.474C95.5111 42.4129 96.3314 43.0682 97.2529 43.0682C97.3721 43.0682 97.4932 43.0572 97.6147 43.0344C98.675 42.8359 99.3736 41.8154 99.175 40.7553C98.3348 36.2666 96.8836 31.9262 94.8568 27.8359C97.7609 24.4775 99.9713 20.4057 99.9713 15.7914C99.9713 8.52656 94.568 2.83555 87.6701 2.83555C84.8961 2.83555 82.3791 3.73711 80.2945 5.46094C78.6055 4.0666 76.1887 2.83555 72.9199 2.83555C71.4227 2.83555 69.9959 3.10371 68.6795 3.59785C62.7498 1.21094 56.4766 0.000585938 50.0252 0H50.0203C36.6666 0 24.1127 5.1998 14.6709 14.6414C5.22793 24.0846 0.0281252 36.6402 0.0292971 49.9957C0.0304689 63.351 5.23262 75.9076 14.6771 85.3521C24.1217 94.7967 36.6783 99.9988 50.0338 100H50.0385C74.1188 100 94.7897 82.8426 99.1854 59.2051C99.3826 58.1445 98.6828 57.125 97.6223 56.9277V56.9277ZM78.8254 9.46543C79.1998 9.89316 79.7486 10.1322 80.3164 10.1248C80.8773 10.1207 81.4152 9.86816 81.7826 9.44473C81.7992 9.42754 81.8156 9.40996 81.8315 9.39199C83.4006 7.63359 85.3648 6.74199 87.6699 6.74199C92.3773 6.74199 96.0648 10.717 96.0648 15.7916C96.0648 25.118 83.6338 32.3717 80.3295 34.1346C77.0041 32.3727 64.5248 25.1357 64.5248 15.7916C64.5248 10.717 68.2123 6.74199 72.9199 6.74199C75.257 6.74199 77.2439 7.6582 78.8254 9.46543V9.46543Z" fill="#1D3557"/>
<path d="M99.4806 49.4941C99.1607 48.7265 98.3685 48.2334 97.5374 48.2935C96.7261 48.3521 96.0263 48.9263 95.8011 49.706C95.5755 50.4871 95.8776 51.3582 96.5407 51.8293C97.1991 52.297 98.0886 52.3103 98.7618 51.8654C99.5321 51.3562 99.8284 50.3431 99.4806 49.4941Z" fill="#1D3557"/>
<path d="M62.2216 44.034L65.6103 40.6453L68.9988 44.034C69.7615 44.7968 70.9978 44.7968 71.7611 44.034C72.5238 43.2713 72.5238 42.0345 71.7611 41.2718L66.9915 36.5021C66.6253 36.1357 66.1285 35.9301 65.6105 35.9301C65.0925 35.9301 64.5958 36.1359 64.2294 36.5021L59.4597 41.2718C58.697 42.0345 58.697 43.2713 59.4597 44.0342C59.8412 44.4156 60.341 44.6062 60.8408 44.6062C61.3404 44.6058 61.84 44.4152 62.2216 44.034V44.034Z" fill="#1D3557"/>
<path d="M30.944 44.034L34.3327 40.6453L37.7213 44.034C38.1028 44.4154 38.6026 44.6061 39.1024 44.6061C39.6022 44.6061 40.1022 44.4154 40.4834 44.034C41.2461 43.2713 41.2461 42.0346 40.4834 41.2717L35.7137 36.502C34.951 35.7393 33.7143 35.7393 32.9516 36.502L28.1819 41.2717C27.4192 42.0344 27.4192 43.2711 28.1819 44.034C28.9446 44.7967 30.1813 44.7967 30.944 44.034Z" fill="#1D3557"/>
<path d="M20.7837 52.8131V55.1508C20.7837 58.0454 21.2065 60.9047 22.0409 63.6495C22.0458 63.6657 22.0511 63.6819 22.0563 63.6979C24.2794 70.967 29.1759 77.0038 35.8491 80.7001C35.8507 80.701 35.8524 80.702 35.854 80.7028C40.1483 83.0813 45.03 84.3383 49.971 84.3383C54.912 84.3383 59.7937 83.0811 64.088 80.7028C64.0888 80.7024 64.0896 80.702 64.0901 80.7014C65.2733 80.0465 66.4232 79.3006 67.5085 78.4836C72.4144 74.7901 76.0978 69.5409 77.8851 63.6987C77.8905 63.6823 77.8958 63.6659 77.9009 63.6493C78.7353 60.9047 79.1583 58.0454 79.1583 55.1504V52.8127C79.1583 51.734 78.2839 50.8596 77.2052 50.8596H22.7368C21.6581 50.86 20.7837 51.7344 20.7837 52.8131V52.8131ZM49.971 80.4325C46.4425 80.4325 42.9505 79.6932 39.7507 78.2805C42.3063 75.344 45.9935 73.6426 49.971 73.6426C53.5948 73.6426 57.0036 75.0545 59.5689 77.6178C59.7835 77.8325 59.9903 78.0538 60.1896 78.2813C56.9903 79.6934 53.4985 80.4325 49.971 80.4325V80.4325ZM65.1593 75.3631C64.6837 75.7211 64.1939 76.0633 63.6931 76.3876C63.2706 75.8524 62.8155 75.3403 62.3304 74.8553C59.0271 71.5543 54.6376 69.7364 49.9708 69.7364C44.5497 69.7364 39.5476 72.1905 36.2487 76.3862C32.0263 73.6432 28.6708 69.6475 26.6987 65.0358H73.2433C71.5107 69.0917 68.7032 72.6952 65.1593 75.3631V75.3631ZM24.6899 54.7663H75.2521V55.1508C75.2521 57.1764 75.0134 59.1811 74.5415 61.1284H25.4005C24.9286 59.1809 24.6899 57.1762 24.6899 55.1508V54.7663Z" fill="#1D3557"/>
</g>
<defs>
<clipPath id="clip0">
<rect width="100" height="100" fill="white"/>
</clipPath>
</defs>
</svg>
