<svg width="100" height="100" viewBox="0 0 100 100" fill="none" xmlns="http://www.w3.org/2000/svg">
<path d="M97.9272 53.4012C96.2776 53.1096 95.0803 51.679 95.0803 49.9997C95.0803 48.3204 96.2774 46.8899 97.927 46.5983C99.1279 46.3858 99.9998 45.3464 99.9998 44.127V32.5653C99.9998 31.3138 99.0744 30.2442 97.8469 30.0776C95.3565 29.7397 93.4785 27.5858 93.4785 25.0595C93.4797 24.3773 93.2166 23.7374 92.7375 23.2579C92.2651 22.7847 91.6362 22.5237 90.9674 22.5237H9.03201C8.36307 22.5237 7.73436 22.7845 7.2619 23.2579C6.78319 23.7374 6.51991 24.3773 6.52108 25.0681C6.52108 27.5862 4.64316 29.7399 2.15273 30.0778C0.925584 30.2444 0 31.3138 0 32.5653V44.127C0 45.3465 0.871678 46.3858 2.07285 46.5983C3.72245 46.8899 4.91972 48.3206 4.91972 49.9999C4.91972 51.6792 3.72245 53.1098 2.07285 53.4014C0.871678 53.6139 0 54.6532 0 55.8727V67.4344C0 68.686 0.925584 69.7555 2.15293 69.9221C4.64335 70.26 6.52128 72.4139 6.52128 74.9402C6.5201 75.6225 6.78319 76.2623 7.2621 76.7418C7.73456 77.215 8.36346 77.476 9.03221 77.476H23.3685C24.1777 77.476 24.8335 76.8201 24.8335 76.0109C24.8335 75.2016 24.1775 74.5459 23.3685 74.5459H9.44178C9.26326 70.8654 6.54823 67.7528 2.93027 67.0803V56.2155C5.80136 55.5436 7.84999 52.9838 7.84999 49.9999C7.84999 47.0159 5.80136 44.4561 2.93027 43.7841V32.9192C6.54452 32.2476 9.2576 29.1405 9.44139 25.4536H90.5582C90.7367 29.1341 93.4518 32.2468 97.0699 32.9192V43.7841C94.1986 44.4557 92.15 47.0155 92.15 49.9997C92.15 52.9838 94.1985 55.5436 97.0699 56.2153V67.0801C93.4555 67.7516 90.7424 70.8588 90.5588 74.5457H32.4841C31.6749 74.5457 31.0191 75.2016 31.0191 76.0107C31.0191 76.8201 31.6751 77.4758 32.4841 77.4758H90.9676C91.6365 77.4758 92.2653 77.215 92.7377 76.7416C93.2166 76.2621 93.4799 75.6223 93.4787 74.9316C93.4787 72.4135 95.3567 70.2598 97.8473 69.9219C99.0744 69.7551 100 68.6858 100 67.4342V55.8725C100 54.6532 99.1281 53.6137 97.9272 53.4012Z" fill="#1D3557"/>
<path d="M83.3111 29.5136H64.7482C63.9389 29.5136 63.2832 30.1693 63.2832 30.9786C63.2832 31.788 63.9391 32.4437 64.7482 32.4437H82.8228V67.5561H17.1768V32.4437H55.4694C56.2787 32.4437 56.9344 31.788 56.9344 30.9786C56.9344 30.1693 56.2785 29.5136 55.4694 29.5136H16.6884C15.3419 29.5136 14.2466 30.6089 14.2466 31.9554V68.0446C14.2466 69.3911 15.3419 70.4864 16.6884 70.4864H83.3111C84.6576 70.4864 85.7529 69.3911 85.7529 68.0446V31.9554C85.7529 30.6089 84.6578 29.5136 83.3111 29.5136Z" fill="#1D3557"/>
<path d="M28.6007 42.3978H21.9907C21.2589 42.3978 20.6636 43.0157 20.6636 43.7751C20.6636 44.5345 21.2589 45.1524 21.9907 45.1524H23.9185V55.2091C23.9185 55.9753 24.5177 56.553 25.3126 56.553C26.0942 56.553 26.7065 55.9628 26.7065 55.2091V45.1524H28.6009C29.3577 45.1524 29.9282 44.5532 29.9282 43.7585C29.928 42.9954 29.345 42.3978 28.6007 42.3978Z" fill="#1D3557"/>
<path d="M33.0245 42.3978C32.2298 42.3978 31.6304 42.9683 31.6304 43.7251V55.2091C31.6304 55.9626 32.2427 56.553 33.0245 56.553C33.8192 56.553 34.4185 55.9753 34.4185 55.2091V43.7251C34.4185 42.9685 33.819 42.3978 33.0245 42.3978Z" fill="#1D3557"/>
<path d="M44.341 51.428C43.5969 51.428 43.0519 51.9087 42.9715 52.629C42.8447 53.4212 42.7568 53.8983 41.5033 53.8983C40.2742 53.8983 39.8596 53.4626 39.8596 52.171V46.8798C39.8598 45.786 40.1205 45.1526 41.4535 45.1526C42.7025 45.1526 42.9223 45.7397 42.9642 46.3212C42.9851 47.0684 43.5648 47.6063 44.3578 47.6063C45.0318 47.6063 45.7517 47.2052 45.7517 46.079C45.7517 44.2499 44.2754 42.3979 41.4533 42.3979C38.7506 42.3979 37.0713 44.1153 37.0713 46.8802V52.1714C37.0713 54.9358 38.7311 56.6534 41.4031 56.6534C44.2578 56.6534 45.7517 54.8016 45.7517 52.9725C45.7517 51.8337 45.023 51.428 44.341 51.428Z" fill="#1D3557"/>
<path d="M56.7579 54.4044L52.9776 48.7038L56.2101 44.6743C56.429 44.4509 56.5518 44.1441 56.5518 43.8085C56.5518 43.0568 55.8847 42.3976 55.1243 42.3976C54.6948 42.3976 54.3011 42.5919 54.0599 42.9204L50.6929 47.1648V43.7249C50.6929 42.9681 50.0937 42.3976 49.2989 42.3976C48.5042 42.3976 47.9048 42.9681 47.9048 43.7249V55.2089C47.9048 55.9624 48.5171 56.5528 49.2989 56.5528C50.0937 56.5528 50.6929 55.9751 50.6929 55.2089V51.5634L51.1462 50.9993L54.4395 55.9261C54.6987 56.3292 55.122 56.5694 55.5751 56.5694C56.3579 56.5694 57.0192 55.9312 57.0192 55.1755C57.0192 54.8876 56.9272 54.6185 56.7579 54.4044Z" fill="#1D3557"/>
<path d="M65.8908 53.7983H61.3596V50.8276H63.0367C63.7812 50.8276 64.3641 50.2376 64.3641 49.4839C64.3641 48.7114 63.7812 48.1065 63.0367 48.1065H61.3596V45.1523H65.891V45.1524C66.6355 45.1524 67.2183 44.5401 67.2183 43.7585C67.2183 42.9827 66.6478 42.3978 65.891 42.3978H59.9486C59.1762 42.3978 58.5713 42.988 58.5713 43.7419V55.2091C58.5713 55.9626 59.1762 56.553 59.9486 56.553H65.891C66.6478 56.553 67.2183 55.9681 67.2183 55.1923C67.2182 54.4106 66.6353 53.7983 65.8908 53.7983Z" fill="#1D3557"/>
<path d="M75.9226 42.3978H69.3127C68.5807 42.3978 67.9854 43.0157 67.9854 43.7751C67.9854 44.5345 68.5807 45.1524 69.3127 45.1524H71.2404V55.2091C71.2404 55.9753 71.8396 56.553 72.6344 56.553C73.4162 56.553 74.0285 55.9628 74.0285 55.2091V45.1524H75.9226C76.6795 45.1524 77.25 44.5532 77.25 43.7585C77.2502 42.9954 76.667 42.3978 75.9226 42.3978Z" fill="#1D3557"/>
</svg>
