<svg width="41" height="24" viewBox="0 0 41 24" fill="none" xmlns="http://www.w3.org/2000/svg">
<g clip-path="url(#clip0)">
<path d="M3.72817 0H36.4152C38.4838 0 40.1585 1.67451 40.1585 3.74322V16.2204C40.1585 18.2889 38.4839 19.9636 36.4152 19.9636H24.6934L26.3023 23.9037L19.2264 19.9636H3.7448C1.67625 19.9636 0.00158453 18.2891 0.00158453 16.2204V3.74322C-0.0148327 1.69098 1.65978 0 3.72833 0H3.72817Z" fill="#9B5C8F"/>
<path d="M2.28622 3.41169C2.51475 3.10154 2.85756 2.93829 3.31463 2.90565C4.14714 2.84035 4.62054 3.23213 4.73481 4.08097C5.24085 7.49274 5.79586 10.382 6.3836 12.7491L9.9585 5.94199C10.285 5.32168 10.6931 4.9952 11.1828 4.96256C11.9011 4.91359 12.3418 5.37065 12.5214 6.33377C12.9295 8.50491 13.4518 10.3495 14.0721 11.9165C14.4966 7.77017 15.2148 4.78303 16.227 2.93832C16.4718 2.48126 16.8309 2.25272 17.3043 2.22006C17.6798 2.18742 18.0226 2.30168 18.3327 2.54654C18.6429 2.7914 18.8061 3.10155 18.8388 3.477C18.8551 3.77084 18.8061 4.01569 18.6755 4.26055C18.0389 5.43588 17.5165 7.41114 17.0922 10.1534C16.6841 12.8143 16.5372 14.8874 16.6351 16.3729C16.6677 16.781 16.6024 17.1401 16.4392 17.4502C16.2433 17.8094 15.9495 18.0053 15.574 18.0379C15.1496 18.0705 14.7089 17.8747 14.2845 17.4339C12.7663 15.8831 11.5583 13.5652 10.6769 10.4799C9.61588 12.5693 8.83238 14.1365 8.32634 15.1812C7.36324 17.0258 6.54705 17.9726 5.8614 18.0215C5.42065 18.0542 5.0452 17.6787 4.71872 16.8952C3.8862 14.7567 2.98837 10.6268 2.02523 4.50537C1.95993 4.08094 2.05788 3.70549 2.28641 3.41166L2.28622 3.41169ZM37.367 5.97451C36.7794 4.9461 35.9142 4.32573 34.7552 4.08086C34.4451 4.01557 34.1513 3.98292 33.8737 3.98292C32.3067 3.98292 31.0334 4.79912 30.0377 6.43155C29.1888 7.81908 28.7644 9.35359 28.7644 11.0348C28.7644 12.2918 29.0256 13.3691 29.5479 14.267C30.1356 15.2954 31.0008 15.9158 32.1597 16.1606C32.4699 16.2259 32.7637 16.2586 33.0412 16.2586C34.6246 16.2586 35.8978 15.4424 36.8773 13.81C37.7261 12.4061 38.1506 10.8716 38.1506 9.19035C38.1669 7.91708 37.8894 6.85608 37.367 5.97451ZM35.3102 10.4962C35.0817 11.5736 34.6736 12.3734 34.0696 12.9122C33.5962 13.3367 33.1555 13.5162 32.7474 13.4346C32.3556 13.353 32.0291 13.0102 31.7843 12.3736C31.5884 11.8675 31.4904 11.3615 31.4904 10.8881C31.4904 10.48 31.5231 10.0719 31.6047 9.69644C31.7516 9.02715 32.0291 8.3742 32.4699 7.75385C33.0085 6.95398 33.5799 6.6275 34.1676 6.74177C34.5594 6.82339 34.8858 7.1662 35.1307 7.80282C35.3266 8.30886 35.4245 8.8149 35.4245 9.2883C35.4245 9.71272 35.3919 10.1208 35.3103 10.4963L35.3102 10.4962ZM27.1482 5.97451C26.5605 4.9461 25.679 4.32573 24.5364 4.08086C24.2263 4.01557 23.9324 3.98292 23.6549 3.98292C22.0878 3.98292 20.8146 4.79912 19.8188 6.43155C18.97 7.81908 18.5456 9.35359 18.5456 11.0348C18.5456 12.2918 18.8068 13.3691 19.3291 14.267C19.9168 15.2954 20.7819 15.9158 21.9409 16.1606C22.251 16.2259 22.5449 16.2586 22.8224 16.2586C24.4057 16.2586 25.679 15.4424 26.6585 13.81C27.5073 12.4061 27.9317 10.8716 27.9317 9.19035C27.9317 7.91708 27.6705 6.85608 27.1482 5.97451ZM25.0751 10.4962C24.8465 11.5736 24.4385 12.3734 23.8345 12.9122C23.3611 13.3367 22.9203 13.5162 22.5122 13.4346C22.1204 13.353 21.794 13.0102 21.5491 12.3736C21.3532 11.8675 21.2553 11.3615 21.2553 10.8881C21.2553 10.48 21.2879 10.0719 21.3696 9.69644C21.5165 9.02715 21.794 8.3742 22.2347 7.75385C22.7734 6.95398 23.3447 6.6275 23.9324 6.74177C24.3242 6.82339 24.6507 7.1662 24.8955 7.80282C25.0914 8.30886 25.1894 8.8149 25.1894 9.2883C25.2057 9.71272 25.1567 10.1208 25.0751 10.4963L25.0751 10.4962Z" fill="white"/>
</g>
<defs>
<clipPath id="clip0">
<rect width="40.1569" height="24" fill="white"/>
</clipPath>
</defs>
</svg>
